<?xml version="1.0" standalone="no"?>
<!DOCTYPE svg PUBLIC "-//W3C//DTD SVG 20010904//EN"
 "http://www.w3.org/TR/2001/REC-SVG-20010904/DTD/svg10.dtd">
<svg version="1.0" xmlns="http://www.w3.org/2000/svg"
 width="923.000000pt" height="923.000000pt" viewBox="0 0 923.000000 923.000000"
 preserveAspectRatio="xMidYMid meet">
<metadata>
Created by potrace 1.11, written by Peter Selinger 2001-2013
</metadata>
<g transform="translate(0.000000,923.000000) scale(0.100000,-0.100000)"
fill="#000000" stroke="none">
<path d="M1620 5666 c-1 -6 -2 -265 -4 -576 -2 -311 -6 -578 -10 -595 -23
-100 -69 -190 -124 -243 -41 -39 -151 -93 -227 -111 -84 -21 -174 -25 -572
-25 l-382 -1 2 -165 2 -165 30 -2 c17 0 52 -2 78 -2 35 -1 46 -4 41 -13 -6
-10 -4 -10 7 0 23 21 46 15 45 -13 -1 -13 -5 -27 -9 -31 -18 -18 -5 -25 16 -8
l22 19 -19 -23 c-25 -28 -28 -59 -9 -94 15 -31 26 -38 16 -10 -6 16 -5 16 13
1 10 -9 25 -14 33 -11 8 2 11 0 8 -5 -3 -5 0 -10 8 -10 11 0 12 4 4 14 -7 8
-8 13 -1 13 5 0 17 -10 26 -23 15 -21 15 -20 0 11 -16 36 -12 54 8 34 7 -7 17
-12 22 -12 6 0 5 5 -2 12 -15 15 -16 28 -2 28 6 0 9 -6 8 -12 -2 -7 2 -12 9
-11 6 1 10 -8 8 -22 -2 -20 1 -23 11 -14 9 7 10 18 4 33 -6 16 -5 23 5 23 7 0
10 -8 7 -21 -5 -19 -4 -19 11 -7 9 7 14 18 10 24 -3 6 -1 7 6 3 9 -6 9 -11 0
-22 -9 -11 -7 -14 11 -14 16 0 20 4 16 16 -3 9 -2 12 4 9 6 -4 22 -9 37 -11
22 -4 24 -3 14 10 -9 11 -9 16 0 22 7 4 9 3 5 -4 -3 -6 1 -15 10 -20 9 -5 14
-15 10 -21 -4 -6 -12 -9 -17 -6 -19 12 -50 14 -43 3 4 -7 3 -8 -4 -4 -6 3 -16
-3 -22 -14 -7 -13 -7 -20 0 -20 5 0 10 7 10 16 0 14 2 15 17 3 10 -8 14 -9 10
-2 -4 6 -3 14 3 18 5 3 10 1 10 -6 0 -7 3 -9 7 -6 3 4 15 -1 25 -10 13 -12 18
-13 16 -4 -2 7 3 16 10 18 8 3 10 -2 6 -14 -5 -17 -5 -16 7 1 11 18 12 18 30
-5 11 -13 17 -17 13 -8 -3 10 -1 20 5 24 8 4 8 12 1 25 -9 16 -7 18 11 15 12
-3 24 -7 28 -11 3 -4 -2 -4 -11 -1 -10 4 -18 2 -18 -3 0 -6 11 -10 25 -10 14
0 25 -4 25 -9 0 -6 -9 -8 -20 -6 -11 2 -22 0 -24 -4 -6 -10 35 -8 51 2 7 4 10
14 7 22 -4 8 -11 12 -17 8 -6 -4 -7 -1 -3 6 10 15 47 -19 38 -34 -10 -17 -11
-35 -1 -29 5 3 7 9 4 14 -3 5 -1 11 4 14 5 4 12 2 16 -4 3 -5 11 -10 16 -10 6
0 3 7 -5 16 -9 8 -16 23 -15 32 0 12 3 11 9 -5 11 -27 22 -31 14 -5 -2 9 1 7
7 -5 13 -24 32 -32 23 -10 -2 7 3 21 12 32 8 11 13 14 9 8 -3 -7 -3 -18 1 -25
5 -8 10 -6 14 7 6 18 7 18 12 -2 5 -17 2 -21 -13 -18 -23 5 -25 -8 -4 -25 15
-12 39 -5 30 10 -3 5 -1 11 5 15 5 3 10 2 10 -3 0 -5 10 -12 23 -15 21 -6 21
-6 -3 13 -13 10 -28 16 -32 14 -4 -3 -8 -1 -8 5 0 5 9 9 19 8 11 0 18 -4 15
-8 -2 -4 8 -10 21 -13 16 -4 23 -11 19 -18 -5 -7 -3 -8 7 -2 22 14 41 14 36 0
-3 -7 1 -13 9 -13 7 0 10 5 7 10 -3 6 -7 20 -9 33 l-2 23 31 -19 c17 -11 34
-17 39 -14 4 3 8 -1 8 -8 0 -9 3 -9 10 2 9 13 10 13 11 0 1 -8 1 -19 0 -23 -1
-5 3 -6 8 -2 6 3 8 11 5 19 -3 7 2 13 11 13 8 0 15 -3 15 -7 0 -4 6 -7 14 -7
8 0 12 6 9 13 -2 7 -13 11 -24 9 -10 -2 -19 1 -19 6 0 5 6 9 13 8 23 -3 38 1
33 9 -2 4 4 9 15 9 10 1 19 -2 19 -7 0 -5 9 -7 20 -5 11 2 18 0 15 -5 -3 -6 1
-7 9 -4 9 3 15 9 14 12 -2 18 3 35 9 29 3 -4 11 -3 18 1 6 4 2 -1 -8 -10 -11
-10 -16 -18 -12 -18 4 0 2 -6 -4 -13 -8 -10 -7 -14 4 -14 7 0 14 3 13 6 -2 19
3 31 13 31 6 0 9 -7 6 -15 -8 -20 8 -28 22 -11 10 11 9 16 -3 23 -11 6 -12 13
-6 23 8 13 10 13 10 -2 0 -11 6 -15 20 -11 11 3 17 9 14 14 -3 5 3 6 12 2 12
-4 15 -3 10 6 -5 8 4 6 25 -5 l34 -17 -20 23 c-11 13 -14 20 -7 16 7 -4 23 -9
35 -11 12 -1 31 -6 42 -9 11 -4 8 0 -8 9 -15 9 -32 13 -37 10 -17 -10 -20 13
-3 26 12 10 14 10 9 2 -6 -11 7 -18 17 -10 2 1 11 -4 20 -11 10 -9 17 -10 22
-2 3 6 11 8 16 4 5 -3 6 -10 3 -16 -4 -7 -2 -8 4 -4 12 7 -2 43 -23 58 -7 5
-7 8 0 8 15 0 37 -16 35 -26 -1 -5 4 -10 12 -12 9 -2 9 -1 2 5 -6 4 -10 16 -9
25 2 10 0 16 -3 15 -7 -2 -12 7 -12 23 0 6 8 2 18 -7 10 -10 17 -24 14 -30 -2
-7 1 -13 8 -13 6 0 8 5 5 10 -3 6 1 10 9 10 9 0 16 5 16 11 0 5 5 7 12 3 6 -4
8 -3 5 4 -8 12 2 42 14 42 4 0 7 -6 5 -12 -1 -7 -1 -10 1 -5 3 4 10 4 16 1 9
-5 9 -4 0 6 -12 13 -7 40 8 40 4 0 6 -7 3 -15 -4 -8 -1 -15 5 -15 6 0 10 3 10
8 -3 20 2 33 11 27 6 -4 10 -3 9 2 -3 19 2 25 15 14 10 -9 15 -8 19 3 4 10 1
13 -8 10 -10 -4 -13 0 -10 15 2 12 0 19 -6 16 -5 -4 -6 -11 -3 -17 5 -7 2 -8
-6 -3 -9 6 -11 4 -5 -5 5 -9 4 -11 -4 -6 -7 5 -10 2 -9 -5 2 -7 -6 -13 -17
-13 -11 0 -24 -5 -28 -11 -6 -6 -7 -5 -5 3 2 8 6 12 10 10 11 -5 58 44 51 55
-3 6 -1 7 5 3 11 -7 17 6 13 28 -1 5 4 4 12 -2 8 -7 18 -8 22 -4 5 4 5 1 1 -6
-4 -7 -12 -10 -17 -7 -11 7 -12 -5 -1 -22 5 -8 11 -4 18 12 11 23 4 50 -11 43
-5 -1 -9 5 -11 15 -1 9 2 17 7 17 5 0 9 -5 9 -12 0 -11 15 -2 15 10 1 13 30
52 39 52 5 0 2 -8 -7 -18 -10 -10 -14 -22 -10 -27 5 -4 3 -5 -4 -1 -8 4 -11 0
-8 -14 3 -14 0 -18 -8 -13 -7 4 -6 0 2 -10 14 -18 26 -23 17 -8 -4 5 0 12 6
14 10 4 10 6 0 6 -7 1 -10 6 -7 11 5 8 11 7 21 -1 8 -7 14 -7 14 -1 0 5 -7 13
-16 16 -15 6 -15 8 2 27 11 12 18 30 16 41 -2 11 1 18 6 14 6 -4 8 3 5 16 -5
22 -5 22 9 4 12 -15 15 -16 15 -3 0 9 -6 18 -12 21 -13 5 -37 -7 -36 -18 3
-20 -1 -26 -16 -26 -15 0 -14 2 3 15 10 8 15 15 10 15 -5 0 -5 5 0 13 5 6 9
21 9 32 0 11 6 25 14 31 18 14 44 7 34 -9 -4 -6 -1 -7 7 -2 10 6 9 11 -6 22
-10 7 -24 11 -32 8 -7 -2 -10 0 -7 5 3 6 21 8 38 6 18 -3 26 -3 20 0 -7 3 -13
12 -13 19 0 7 6 16 13 19 6 3 1 3 -12 0 -15 -4 -21 -2 -17 4 3 6 -3 14 -15 17
-11 4 -18 9 -16 12 3 2 15 0 26 -7 18 -9 21 -8 21 8 0 10 5 23 12 30 9 9 9 12
0 12 -7 0 -15 -7 -18 -15 -7 -18 -30 -20 -40 -3 -4 7 -3 8 4 4 7 -4 17 -4 24
0 8 5 6 10 -8 16 -17 7 -16 8 4 4 12 -2 22 0 22 6 0 5 4 7 9 3 5 -3 12 -1 16
4 3 6 -3 8 -13 6 -10 -2 -25 1 -33 6 -11 7 -11 9 -1 9 7 0 11 4 7 9 -3 5 -1
13 5 16 6 4 8 24 6 46 -4 34 -2 39 15 39 10 0 19 4 19 10 0 5 -6 7 -14 4 -9
-3 -19 4 -26 16 -8 15 -8 20 -1 16 14 -9 14 0 0 26 -6 12 -7 18 -1 14 10 -6
26 23 17 32 -3 3 -5 1 -5 -5 0 -5 -7 -10 -16 -10 -15 0 -14 2 1 13 10 8 22 11
26 8 5 -3 9 0 9 5 0 6 -4 11 -10 11 -5 0 -10 5 -10 10 0 7 7 7 23 0 21 -11 22
-11 2 5 -11 9 -19 18 -17 21 2 3 0 9 -4 12 -4 4 -4 1 0 -5 5 -9 2 -11 -10 -6
-13 5 -14 8 -4 11 9 3 5 9 -11 19 l-24 14 25 -7 c23 -6 24 -6 10 11 -8 11 -10
16 -3 12 14 -9 13 54 -1 64 -4 4 -3 10 3 13 6 4 11 2 11 -4 0 -6 4 -8 10 -5 6
4 5 11 -3 19 -6 8 -16 11 -22 8 -16 -10 -34 -11 -40 -2 -2 4 5 7 18 6 12 0 21
4 20 11 -2 6 7 15 18 18 20 7 20 8 -7 27 -16 11 -21 18 -12 14 25 -8 47 33 24
46 -21 12 -20 28 2 28 15 0 15 -2 2 -11 -13 -9 -13 -10 0 -6 8 2 16 9 16 15 1
7 3 13 4 15 4 4 7 67 3 67 -2 0 -12 -8 -21 -17 -16 -16 -16 -16 0 -10 14 5 17
2 14 -15 -4 -29 -22 -34 -35 -9 -8 14 -8 22 -1 26 8 5 8 11 0 20 -8 9 -8 15 0
20 6 3 8 10 6 13 -2 4 2 18 10 32 8 16 13 19 14 10 0 -9 -6 -23 -12 -30 -7 -8
-4 -7 6 2 13 11 16 22 11 35 -8 17 -10 47 -5 68 5 20 0 35 -11 35 -8 0 -8 -4
-1 -13 6 -7 7 -18 2 -26 -4 -8 -7 -19 -6 -25 2 -6 1 -8 -1 -3 -3 4 -8 5 -12 3
-4 -3 -8 1 -8 9 0 8 4 12 8 9 18 -10 15 23 -4 44 -11 12 -15 22 -9 22 7 0 12
-4 12 -10 0 -6 10 -5 25 2 14 6 25 16 25 21 0 5 -7 4 -15 -3 -11 -9 -19 -9
-36 4 -22 15 -22 15 -1 13 11 0 18 -6 14 -12 -3 -5 3 -3 14 5 29 22 30 24 12
17 -10 -4 -18 -2 -18 3 0 5 8 14 18 20 15 10 15 11 0 6 -9 -3 -19 0 -22 7 -3
9 -5 9 -5 0 -1 -7 -6 -13 -12 -13 -5 0 -8 4 -5 9 4 5 0 12 -6 15 -7 3 2 3 20
0 19 -2 32 0 32 6 0 6 -4 8 -10 5 -5 -3 -10 -2 -10 4 0 6 -8 8 -17 5 -10 -3
-5 2 10 11 21 12 26 20 18 29 -6 7 -7 16 -3 20 4 5 -2 6 -13 4 -11 -1 -23 -7
-26 -11 -3 -5 -9 -1 -12 8 -4 9 -3 13 2 10 5 -3 13 0 17 6 7 12 -15 31 -28 23
-4 -3 -8 0 -8 5 0 14 6 14 30 1 14 -7 20 -6 24 7 4 9 4 18 1 21 -3 3 -5 0 -5
-6 0 -7 -5 -12 -12 -12 -6 0 -8 3 -5 7 4 3 1 13 -6 21 -10 13 -9 15 6 9 10 -4
16 -3 13 2 -3 5 -14 11 -25 14 -15 4 -18 1 -13 -12 5 -14 4 -14 -11 -2 -9 7
-15 17 -12 21 3 5 1 11 -4 14 -11 7 -9 -13 2 -31 11 -17 -2 -16 -33 2 -32 18
-44 19 -37 1 3 -8 -1 -17 -9 -20 -7 -3 -13 -2 -13 2 1 4 1 48 0 98 l-1 91
-165 0 c-116 1 -165 -3 -165 -11z m394 -189 c-2 -7 -15 -13 -29 -13 -13 0 -21
4 -19 8 3 5 10 5 16 2 7 -5 9 0 6 14 -5 19 -3 20 13 12 10 -6 16 -16 13 -23z
m72 0 c4 -3 -3 -5 -15 -2 -11 2 -21 0 -21 -4 0 -4 -7 -8 -16 -8 -15 0 -15 2 0
13 18 12 40 13 52 1z m-36 -48 c0 -5 -4 -9 -8 -9 -5 0 -9 7 -9 15 0 8 4 12 9
9 4 -3 8 -9 8 -15z m65 -62 c-11 -6 -21 -5 -28 3 -9 8 -7 9 7 4 13 -5 17 -4
12 4 -5 8 -2 10 10 5 15 -6 15 -7 -1 -16z m-45 -37 c0 -5 -5 -10 -11 -10 -5 0
-7 5 -4 10 3 6 8 10 11 10 2 0 4 -4 4 -10z m10 -36 c0 -8 -19 -13 -24 -6 -3 5
1 9 9 9 8 0 15 -2 15 -3z m35 -4 c-3 -5 -12 -10 -18 -10 -7 0 -6 4 3 10 19 12
23 12 15 0z m-20 -99 c-3 -2 -11 1 -18 7 -8 7 -18 8 -22 4 -5 -4 -5 -1 -1 5 5
10 11 10 26 1 11 -7 17 -14 15 -17z m-15 -17 c0 -8 -19 -13 -24 -6 -3 5 1 9 9
9 8 0 15 -2 15 -3z m28 -66 c-8 -12 -21 -24 -29 -26 -8 -2 -5 3 6 12 11 8 16
16 10 16 -5 0 -3 5 5 10 22 14 24 12 8 -12z m7 -198 c-3 -5 -11 -10 -16 -10
-6 0 -7 5 -4 10 3 6 11 10 16 10 6 0 7 -4 4 -10z m-45 -60 c0 -5 -5 -10 -11
-10 -5 0 -7 5 -4 10 3 6 8 10 11 10 2 0 4 -4 4 -10z m20 -116 c0 -8 -19 -13
-24 -6 -3 5 1 9 9 9 8 0 15 -2 15 -3z m10 -88 c0 -2 -7 -7 -16 -10 -8 -3 -12
-2 -9 4 6 10 25 14 25 6z m0 -30 c0 -2 -7 -7 -16 -10 -8 -3 -12 -2 -9 4 6 10
25 14 25 6z m-10 -126 c0 -5 -2 -10 -4 -10 -3 0 -8 5 -11 10 -3 6 -1 10 4 10
6 0 11 -4 11 -10z m0 -37 c0 -5 -5 -15 -10 -23 -7 -12 -9 -10 -7 8 1 19 17 33
17 15z m5 -43 c-3 -5 -12 -10 -18 -10 -7 0 -6 4 3 10 19 12 23 12 15 0z m5
-180 c0 -5 -7 -7 -15 -4 -8 4 -15 8 -15 10 0 2 7 4 15 4 8 0 15 -4 15 -10z
m-60 -56 c0 -8 -19 -13 -24 -6 -3 5 1 9 9 9 8 0 15 -2 15 -3z m15 -114 c3 -6
-1 -7 -9 -4 -18 7 -21 14 -7 14 6 0 13 -4 16 -10z m-46 -22 c-12 -23 -21 -24
-12 -1 4 10 2 14 -5 9 -6 -3 -13 -3 -16 2 -2 4 6 8 19 8 20 0 22 -3 14 -18z
m-59 -88 c0 -5 -5 -10 -11 -10 -5 0 -7 5 -4 10 3 6 8 10 11 10 2 0 4 -4 4 -10z
m-70 -118 c-15 -5 -34 -30 -35 -44 0 -5 -3 -8 -7 -8 -5 0 -12 0 -18 0 -5 0 2
11 16 25 14 14 23 29 20 34 -4 5 4 7 16 3 16 -4 18 -7 8 -10z m-50 -12 c-6
-11 -13 -20 -16 -20 -2 0 0 9 6 20 6 11 13 20 16 20 2 0 0 -9 -6 -20z m-110
-46 c0 -8 -19 -13 -24 -6 -3 5 1 9 9 9 8 0 15 -2 15 -3z m-1153 -29 c0 -8 -4
-12 -9 -9 -5 3 -6 10 -3 15 9 13 12 11 12 -6z m1167 -7 c-5 -8 -2 -9 9 -5 10
3 17 2 17 -3 0 -16 -15 -18 -33 -5 -14 10 -15 14 -5 18 19 8 20 8 12 -5z m-74
-12 c0 -2 -7 -7 -16 -10 -8 -3 -12 -2 -9 4 6 10 25 14 25 6z m-1106 -14 c3 -5
-1 -9 -9 -9 -8 0 -12 4 -9 9 3 4 7 8 9 8 2 0 6 -4 9 -8z m660 0 c3 -5 -1 -9
-9 -9 -8 0 -12 4 -9 9 3 4 7 8 9 8 2 0 6 -4 9 -8z m73 -7 c0 -8 -4 -12 -9 -9
-5 3 -6 10 -3 15 9 13 12 11 12 -6z m328 5 c-3 -5 -12 -10 -18 -10 -7 0 -6 4
3 10 19 12 23 12 15 0z m-1028 -15 c0 -8 -4 -12 -9 -9 -5 3 -6 10 -3 15 9 13
12 11 12 -6z m558 6 c3 -5 2 -12 -3 -15 -5 -3 -9 1 -9 9 0 17 3 19 12 6z m323
-13 c-2 -7 5 -12 14 -12 10 1 15 -2 12 -7 -8 -14 -31 -11 -37 5 -3 8 -3 17 0
20 10 9 13 7 11 -6z m-718 -14 c0 -8 -19 -13 -24 -6 -3 5 1 9 9 9 8 0 15 -2
15 -3z m460 -8 c-7 -7 -13 -7 -20 0 -6 6 -3 10 10 10 13 0 16 -4 10 -10z
m-695 -16 c-6 -10 7 -14 33 -11 6 1 12 -3 12 -9 0 -5 5 -10 11 -10 5 0 8 4 4
9 -3 5 -1 12 4 15 5 4 8 -1 7 -10 -4 -26 -29 -35 -48 -17 -10 9 -18 12 -18 7
0 -5 -4 -2 -9 6 -9 13 -6 30 5 30 3 0 2 -4 -1 -10z m384 -24 c7 -9 8 -16 2
-20 -5 -4 -12 -2 -16 4 -4 6 -12 7 -18 4 -9 -5 -9 -3 0 6 10 11 9 16 -5 27
-15 13 -15 13 4 4 11 -5 26 -17 33 -25z m311 20 c0 -2 -7 -7 -16 -10 -8 -3
-12 -2 -9 4 6 10 25 14 25 6z m133 -8 c9 0 17 -3 17 -7 0 -13 -46 -7 -60 8
-13 13 -12 14 5 7 11 -5 28 -8 38 -8z m-507 -26 c-17 -16 -18 -16 -5 5 7 12
15 20 18 17 3 -2 -3 -12 -13 -22z m401 14 c0 -15 -21 -16 -34 -1 -4 4 -2 5 5
1 6 -4 12 -2 12 3 0 6 4 11 8 11 5 0 9 -6 9 -14z m-112 -26 c3 -5 1 -10 -4
-10 -6 0 -11 5 -11 10 0 6 2 10 4 10 3 0 8 -4 11 -10z"/>
<path d="M2980 5669 c-25 -4 -61 -9 -80 -13 -54 -8 -158 -45 -225 -78 -315
-158 -489 -469 -480 -858 5 -235 77 -438 214 -607 27 -33 48 -64 45 -67 -2 -3
-1 -4 3 -1 3 3 27 -14 52 -38 25 -23 58 -52 74 -64 15 -11 27 -26 27 -32 0 -6
5 -11 11 -11 5 0 7 5 3 12 -4 7 -3 8 5 4 9 -6 9 -11 1 -21 -8 -9 -4 -17 15
-29 14 -9 25 -23 25 -30 0 -20 21 -25 45 -13 18 9 19 9 5 -8 -14 -17 -14 -17
7 -7 30 16 41 15 17 -2 -10 -8 -16 -18 -11 -22 4 -4 7 -2 7 4 0 7 4 12 10 12
5 0 7 -7 4 -15 -5 -11 -2 -14 12 -8 11 3 22 11 25 16 4 5 10 -1 14 -13 6 -18
9 -20 17 -9 7 10 8 8 4 -7 -4 -13 1 -29 14 -44 11 -12 17 -27 14 -31 -3 -5 0
-9 6 -9 6 0 9 8 6 18 -4 13 0 18 15 19 16 2 18 -1 10 -11 -8 -10 -7 -17 6 -27
16 -13 17 -12 4 4 -16 21 1 23 19 2 7 -8 16 -13 20 -10 5 3 10 -1 13 -7 2 -7
8 -9 13 -5 9 8 -15 29 -26 22 -3 -2 -12 5 -19 17 -7 11 -8 17 -3 14 6 -3 12
-3 15 1 2 5 2 3 1 -4 -2 -6 3 -14 11 -17 10 -3 12 0 9 12 -3 9 1 6 9 -7 11
-18 16 -20 20 -10 3 8 5 3 4 -11 -2 -22 1 -25 28 -21 17 1 33 8 37 15 6 8 8 8
8 -1 0 -7 6 -13 13 -13 8 0 19 -10 25 -22 6 -13 11 -17 11 -10 1 11 4 10 16
-1 15 -16 51 -12 62 6 4 7 0 8 -12 3 -15 -5 -16 -4 -6 8 10 12 16 10 37 -10
13 -14 29 -22 34 -19 6 3 10 0 10 -7 0 -7 14 2 30 20 17 18 30 29 30 24 0 -4
-5 -13 -12 -20 -9 -9 -7 -12 10 -12 24 0 28 -10 12 -26 -7 -7 -6 -11 5 -11 8
0 13 2 10 5 -9 9 16 43 27 36 5 -4 14 -1 18 7 7 10 12 10 26 -2 16 -12 17 -12
11 4 -9 24 0 21 14 -4 9 -17 8 -20 -2 -14 -8 5 -10 4 -5 -4 4 -6 11 -9 16 -6
5 3 10 0 13 -7 2 -7 3 -4 1 7 -5 29 11 52 20 30 5 -13 9 -15 20 -6 17 14 83 9
99 -9 10 -10 9 -11 -2 -5 -10 5 -12 4 -7 -4 4 -6 11 -9 16 -6 5 3 10 0 13 -7
2 -7 2 1 1 17 -2 17 -1 24 2 17 3 -6 10 -9 15 -6 6 3 5 12 -3 22 -12 16 -11
16 7 2 11 -8 24 -21 28 -27 4 -7 13 -13 19 -13 7 0 7 4 1 13 -11 12 -9 44 2
55 3 4 4 -6 1 -21 -2 -14 0 -29 5 -32 5 -4 9 -1 9 4 0 6 5 11 11 11 5 0 7 -4
4 -10 -3 -5 4 -10 16 -10 19 0 20 2 8 17 -12 15 -12 16 1 8 21 -13 39 -15 46
-4 3 5 10 7 15 3 5 -3 7 -10 4 -15 -8 -12 16 -12 34 0 10 6 22 5 34 -4 20 -14
47 -10 47 7 0 6 -7 4 -17 -3 -15 -13 -15 -12 -2 8 9 16 16 19 21 10 4 -7 8 -8
8 -4 0 4 9 3 20 -3 12 -6 20 -7 20 -1 0 5 -6 12 -12 14 -8 3 -6 6 5 6 15 1 21
-9 18 -31 -1 -10 28 -3 41 10 19 19 32 14 17 -5 -13 -16 -12 -17 3 -5 10 8 17
17 16 20 -1 4 2 17 6 30 6 17 13 21 27 17 15 -5 18 -3 13 12 -4 13 -3 14 3 5
8 -10 15 -10 37 2 15 7 24 16 19 18 -4 3 -3 3 4 2 7 -2 15 1 18 6 4 6 1 10 -6
10 -7 0 -10 3 -7 6 4 3 15 1 27 -5 13 -7 22 -8 26 -1 3 5 1 10 -4 10 -6 0 -11
6 -11 13 0 6 11 0 24 -15 20 -22 25 -24 30 -11 5 13 9 13 24 2 15 -13 16 -12
4 3 -8 9 -11 22 -7 28 4 6 -1 18 -11 26 -18 14 -17 14 5 3 20 -9 23 -9 18 4
-4 11 0 14 16 10 22 -4 22 -4 2 12 -20 16 -20 16 5 12 30 -5 70 8 70 24 0 8
-5 7 -17 -2 -15 -13 -15 -12 -3 8 13 20 15 20 28 5 13 -16 13 -16 8 1 -3 9 -1
17 4 17 6 0 10 -6 10 -12 0 -9 3 -9 8 -2 4 6 14 13 22 16 9 3 17 20 18 39 3
41 7 45 29 28 11 -9 14 -10 9 -1 -4 7 -2 12 6 12 9 0 9 3 -2 10 -14 9 -12 11
20 14 8 0 15 7 15 14 0 7 7 17 15 23 11 8 9 9 -10 3 -22 -6 -23 -5 -11 9 7 9
18 14 24 10 6 -4 7 -1 3 6 -5 7 -11 10 -14 7 -3 -3 -12 3 -20 15 -8 11 -11 23
-8 26 3 4 6 1 6 -6 0 -7 5 -9 12 -5 7 4 8 3 4 -4 -4 -7 -2 -12 3 -12 6 0 11 9
11 19 0 10 7 21 15 25 8 3 15 11 15 18 0 9 -3 8 -10 -2 -7 -11 -10 -11 -10 -2
0 7 -4 11 -8 8 -5 -3 -9 1 -9 9 0 8 5 11 11 7 6 -3 19 -8 29 -9 15 -2 17 1 12
18 -5 15 -4 19 4 15 6 -4 11 -5 11 -1 0 3 -10 10 -22 15 l-23 9 23 0 c12 1 25
8 28 16 4 8 10 12 15 9 5 -3 9 0 9 6 0 7 -7 10 -15 6 -11 -4 -14 1 -11 17 3
21 -29 55 -47 49 -5 -1 -5 2 -2 8 5 8 13 6 24 -4 19 -17 36 -21 26 -7 -3 5 1
15 8 23 7 7 16 21 20 30 5 15 2 16 -19 8 -17 -7 -23 -7 -19 0 3 6 13 10 21 10
9 0 12 5 8 11 -5 8 -1 8 14 0 19 -10 20 -13 7 -38 -8 -14 -20 -30 -27 -34 -10
-7 -9 -9 4 -9 10 0 20 10 24 25 3 14 9 23 13 21 4 -3 7 6 7 19 0 13 -4 21 -8
19 -5 -3 -11 2 -15 11 -6 17 14 38 28 29 4 -2 11 0 14 6 4 6 1 9 -7 8 -8 -2
-12 5 -10 20 1 15 -2 22 -10 20 -7 -3 -13 -11 -13 -19 -1 -42 -26 -72 -40 -49
-4 6 -1 9 6 8 6 -2 14 3 17 11 2 8 0 11 -5 8 -5 -3 -10 0 -10 8 0 12 3 12 15
2 12 -10 14 -9 9 8 -7 21 4 47 19 46 4 -1 9 12 10 29 1 16 -2 30 -7 30 -5 0
-9 5 -9 11 0 5 5 7 10 4 6 -3 10 -1 10 4 0 6 -4 11 -8 11 -4 0 -8 9 -9 19 -1
13 3 18 12 15 20 -8 25 9 9 31 -8 10 -14 14 -14 9 0 -6 6 -16 13 -23 10 -10 8
-12 -8 -9 -13 2 -20 -2 -19 -12 1 -9 -8 -17 -20 -18 -15 -1 -17 1 -7 7 8 5 10
14 6 21 -5 8 -4 11 2 7 6 -4 13 2 16 14 4 16 2 19 -15 13 -18 -5 -19 -4 -7 8
7 8 24 14 36 12 13 -1 21 2 18 6 -3 5 -11 7 -18 4 -7 -2 -13 6 -13 22 -1 14
-11 34 -22 45 -15 13 -19 28 -17 50 5 39 13 48 25 29 7 -11 10 -11 10 -2 0 7
-7 15 -15 18 -8 4 -12 11 -8 18 4 6 1 6 -9 -2 -13 -10 -17 -10 -22 3 -3 8 -10
15 -16 15 -6 0 -8 -5 -4 -12 4 -6 3 -8 -4 -5 -11 8 -11 25 1 44 4 7 -2 19 -15
29 -15 11 -17 14 -5 11 19 -7 23 13 6 30 -8 8 -7 13 2 18 8 5 10 4 5 -3 -4 -7
-3 -12 2 -12 6 0 12 6 15 14 4 11 0 13 -17 10 -14 -2 -32 4 -46 16 -12 11 -27
17 -31 14 -5 -3 -9 0 -9 6 0 7 8 9 19 5 24 -7 41 14 30 40 l-8 20 -1 -20 c-2
-11 -2 -24 -1 -29 1 -5 -4 -4 -12 2 -8 7 -18 8 -22 4 -5 -4 -5 -2 -2 5 4 6 2
13 -5 15 -7 3 -5 7 6 11 9 4 15 3 11 -2 -3 -5 -1 -12 4 -16 20 -12 0 45 -24
69 -14 14 -25 30 -25 36 0 5 -8 10 -17 10 -15 0 -15 -1 2 -13 11 -9 15 -19 10
-27 -6 -9 -4 -11 5 -5 9 6 11 4 5 -5 -6 -9 -4 -11 5 -5 9 6 11 4 5 -5 -6 -9
-4 -11 5 -5 9 6 11 4 5 -5 -6 -9 -4 -11 6 -5 12 7 12 6 0 -6 -10 -11 -15 -11
-18 -1 -3 6 -9 10 -14 6 -5 -3 -8 0 -7 8 2 7 -3 12 -9 11 -7 -2 -12 3 -10 10
1 6 -4 11 -12 9 -12 -3 -12 0 -2 12 10 12 9 17 -7 27 -19 12 -19 14 -4 27 9 7
12 11 5 8 -13 -7 -43 3 -43 14 0 5 10 6 23 4 20 -4 20 -4 2 5 -11 4 -23 7 -26
5 -4 -2 -12 3 -19 11 -11 13 -10 14 6 9 10 -3 6 3 -11 14 -39 25 -67 60 -60
72 4 6 1 10 -5 10 -6 0 -39 24 -73 53 -117 99 -232 157 -392 199 -72 18 -113
20 -435 22 -195 2 -375 -1 -400 -5z m305 -428 c3 -5 2 -12 -3 -15 -5 -3 -9 1
-9 9 0 17 3 19 12 6z m245 5 c0 -2 -6 -9 -14 -15 -11 -9 -16 -9 -22 0 -4 7 -3
9 4 5 6 -3 13 -2 17 4 6 10 15 14 15 6z m-123 -21 c0 -8 -4 -12 -9 -9 -5 3 -6
10 -3 15 9 13 12 11 12 -6z m223 5 c0 -5 -5 -10 -11 -10 -5 0 -7 5 -4 10 3 6
8 10 11 10 2 0 4 -4 4 -10z m144 2 c3 -5 -1 -9 -9 -9 -8 0 -12 4 -9 9 3 4 7 8
9 8 2 0 6 -4 9 -8z m-189 -19 c-2 -10 -5 -25 -7 -33 -2 -9 4 -15 17 -15 11 -1
19 -6 18 -13 -2 -7 2 -12 7 -12 6 0 10 4 10 9 0 5 7 12 16 15 12 5 15 2 10
-11 -6 -17 -5 -17 8 0 11 14 15 15 25 4 6 -8 7 -18 3 -22 -4 -5 -1 -5 6 -1 11
6 11 11 0 23 -7 9 -13 19 -13 22 0 3 -3 5 -7 4 -5 -2 -8 2 -8 7 0 13 17 13 25
0 5 -8 11 -8 20 0 9 8 14 6 19 -5 3 -8 13 -15 21 -15 9 0 13 5 10 10 -4 6 -10
8 -14 6 -4 -3 -8 1 -8 9 0 13 3 13 18 -1 10 -9 19 -11 23 -6 3 6 1 13 -4 15
-6 3 -5 4 2 3 7 -2 12 -9 11 -15 -2 -6 2 -11 7 -11 6 0 10 8 11 18 0 13 2 12
9 -5 5 -13 15 -23 21 -23 8 0 7 6 -2 18 -13 16 -12 16 4 3 16 -13 20 -13 27
-1 5 8 6 18 3 24 -3 5 -1 6 5 2 9 -5 9 -13 2 -27 -7 -13 -7 -19 0 -19 5 0 10
6 10 13 0 9 3 8 9 -2 6 -9 11 -10 15 -2 4 6 12 9 17 5 6 -4 6 -11 -1 -19 -7
-8 -7 -15 -1 -19 5 -4 13 3 16 15 6 17 9 19 16 8 5 -8 9 -18 9 -24 0 -5 -4 -4
-9 3 -6 11 -10 10 -15 -4 -4 -9 -2 -22 4 -28 8 -8 9 -6 4 7 -3 10 -3 17 2 16
5 -1 11 0 14 1 16 6 39 7 39 2 -3 -18 2 -26 9 -15 10 15 85 -85 77 -104 -2 -8
-1 -12 4 -9 12 8 40 -63 57 -144 16 -75 13 -230 -6 -305 -7 -27 -30 -87 -52
-132 -82 -169 -244 -285 -434 -311 -75 -10 -605 -8 -663 2 -56 10 -175 58
-191 77 -3 3 -15 11 -27 18 -13 6 -22 15 -22 19 3 18 -2 26 -10 14 -7 -11 -9
-10 -14 3 -4 9 -3 13 3 10 6 -3 10 -1 10 6 0 7 6 5 13 -5 12 -16 14 -16 14 -2
0 16 -9 20 -34 17 -7 -1 -13 3 -13 9 0 6 -4 9 -9 6 -5 -4 -8 1 -7 9 2 17 21
21 21 5 0 -5 3 -10 8 -10 4 0 14 0 22 0 8 0 15 5 15 11 0 5 -5 7 -10 4 -25
-15 -45 23 -27 51 4 7 1 14 -6 17 -20 7 -27 7 -24 0 1 -5 5 -7 10 -6 4 2 7 -2
7 -7 0 -12 -10 -13 -27 -2 -12 8 -12 36 0 48 3 4 4 11 1 16 -3 5 -11 2 -18 -8
-11 -15 -13 -15 -13 0 0 9 4 16 9 16 11 0 6 33 -7 42 -6 5 -5 8 3 8 18 0 15
21 -5 36 -17 13 -17 14 2 8 20 -6 20 -5 1 10 -18 15 -18 16 -2 16 10 0 14 5
11 11 -4 6 -12 8 -19 6 -6 -3 -12 6 -12 19 l-2 24 19 -23 c10 -12 18 -17 19
-11 0 6 -3 14 -7 18 -4 3 -8 13 -9 22 -2 12 1 13 12 3 20 -17 17 1 -7 41 -14
23 -16 30 -6 21 9 -7 21 -10 26 -7 5 4 13 1 17 -5 5 -8 3 -9 -6 -4 -9 6 -11 4
-5 -5 6 -9 4 -11 -5 -5 -8 5 -11 4 -6 -3 10 -17 35 -3 33 18 -1 10 -5 16 -9
14 -10 -6 -11 20 -1 29 3 4 13 -1 21 -11 10 -12 9 -9 -2 10 -9 15 -12 29 -7
33 5 3 11 -1 14 -7 3 -7 5 -4 6 7 2 48 5 61 15 68 7 6 5 7 -6 4 -9 -3 -23 2
-32 12 -15 17 -15 19 1 32 16 12 17 12 6 -2 -7 -9 -10 -19 -6 -22 10 -11 53
-8 53 4 0 5 5 7 11 4 6 -4 5 2 -2 13 -7 11 -19 18 -26 15 -7 -3 -13 0 -13 7 0
6 4 9 9 6 5 -3 11 1 15 9 3 8 11 15 18 15 9 0 8 -3 -2 -10 -9 -6 -10 -10 -3
-10 7 0 17 9 23 20 6 11 15 18 20 15 6 -4 7 1 3 11 -4 11 -3 15 5 10 6 -3 13
-2 16 3 4 5 -1 8 -10 7 -8 -1 -19 -9 -24 -16 -5 -7 -16 -15 -24 -16 -9 -1 -14
2 -10 7 3 5 10 7 15 4 16 -11 10 7 -8 22 -16 13 -16 13 3 4 21 -10 34 -6 34
11 0 5 -4 7 -8 4 -4 -2 -9 4 -9 15 -2 18 0 18 17 -3 21 -26 28 -23 33 13 3 16
11 24 26 25 12 1 24 -3 27 -8 3 -4 10 -6 15 -2 5 3 18 0 27 -8 15 -12 16 -11
3 5 -8 10 -20 16 -27 13 -19 -7 -27 11 -14 31 11 17 11 17 6 -1 -6 -16 -4 -17
9 -6 12 10 15 10 15 -1 1 -9 4 -8 11 4 8 14 14 16 25 6 8 -6 17 -9 21 -5 3 3
1 6 -5 6 -7 0 -2 11 10 25 24 28 38 32 38 11 0 -8 4 -17 9 -20 5 -4 7 3 4 14
-7 27 -21 34 -37 21 -10 -8 -16 -8 -25 3 -9 10 -8 16 4 26 10 9 15 9 15 1 0
-6 -5 -11 -11 -11 -5 0 -7 -5 -4 -10 5 -8 11 -7 20 0 10 8 19 8 35 0 12 -6 26
-9 33 -6 7 2 5 5 -4 5 -9 1 -23 9 -30 18 -12 15 -12 16 1 8 25 -16 72 -14 66
2 -3 8 -2 11 3 8 6 -3 14 3 20 12 6 10 11 12 11 6 0 -7 4 -13 9 -13 6 0 8 9 6
21 -4 20 -4 20 22 3 20 -13 28 -14 31 -4 3 9 6 9 12 1 4 -7 19 -13 33 -15 27
-3 50 -16 29 -16 -7 0 -12 -4 -12 -8 0 -5 7 -9 15 -9 8 0 12 4 10 8 -3 4 2 10
11 13 12 5 15 2 10 -11 -6 -17 -5 -17 8 0 7 9 16 17 19 17 4 0 3 -8 0 -17 -6
-17 -6 -17 10 -1 24 24 22 26 -25 23 -24 -1 -37 -1 -30 2 6 3 10 9 6 14 -3 5
-1 9 5 9 5 0 11 -5 13 -11 3 -8 10 -6 21 5 9 10 17 12 17 6 0 -6 5 -8 12 -4 7
4 8 3 4 -4 -4 -7 -2 -12 4 -12 7 0 8 -6 0 -19 -7 -14 -7 -22 0 -26 6 -4 10 -3
9 2 -5 27 1 35 16 23 9 -7 18 -10 22 -6 3 3 0 6 -8 6 -9 0 -10 3 -3 8 6 4 16
16 23 27 12 19 12 19 7 -4 -3 -13 1 -30 10 -38 8 -8 14 -11 14 -6 0 5 -5 14
-12 21 -9 9 -9 12 0 12 7 0 12 8 12 18 1 16 1 16 11 0 5 -10 15 -18 21 -18 7
0 7 5 -1 14 -9 11 -9 16 0 22 7 4 9 3 5 -4 -3 -6 -2 -13 3 -17 5 -3 15 3 21
12 10 16 11 16 6 1 -3 -10 -1 -20 4 -23 6 -4 11 -1 11 4 1 6 3 16 4 21 1 6 3
12 4 15 3 14 9 3 6 -12z m-501 -9 c3 -8 2 -12 -4 -9 -6 3 -10 10 -10 16 0 14
7 11 14 -7z m146 12 c0 -3 -4 -8 -10 -11 -5 -3 -10 -1 -10 4 0 6 5 11 10 11 6
0 10 -2 10 -4z m220 -6 c0 -5 -2 -10 -4 -10 -3 0 -8 5 -11 10 -3 6 -1 10 4 10
6 0 11 -4 11 -10z m260 0 c0 -5 -2 -10 -4 -10 -3 0 -8 5 -11 10 -3 6 -1 10 4
10 6 0 11 -4 11 -10z m-407 -9 c4 -1 7 -5 7 -10 0 -11 -39 -6 -52 7 -5 5 1 8
14 6 13 -1 26 -3 31 -3z m128 -14 c-1 -12 -15 -9 -19 4 -3 6 1 10 8 8 6 -3 11
-8 11 -12z m233 -4 c4 -10 4 -14 0 -11 -4 4 -15 3 -25 -2 -12 -7 -20 -7 -24 0
-4 6 -11 8 -16 5 -5 -4 -9 -1 -9 5 0 7 7 10 15 7 8 -4 17 -2 20 3 10 16 32 11
39 -7z m323 -8 c0 -8 -4 -12 -9 -9 -5 3 -6 10 -3 15 9 13 12 11 12 -6z m-885
-11 c-4 -10 -17 -8 -42 6 -10 6 -6 8 15 6 17 -2 28 -7 27 -12z m-152 -34 c0
-5 -5 -10 -11 -10 -5 0 -7 5 -4 10 3 6 8 10 11 10 2 0 4 -4 4 -10z m40 -21 c0
-5 6 -7 13 -3 8 5 7 2 -2 -9 -8 -10 -16 -15 -19 -12 -3 3 -11 0 -17 -5 -13
-11 -43 15 -31 27 3 3 6 2 6 -4 0 -6 9 -9 20 -6 11 3 17 9 14 14 -3 5 0 9 5 9
6 0 11 -5 11 -11z m1480 7 c0 -3 -4 -8 -10 -11 -5 -3 -10 -1 -10 4 0 6 5 11
10 11 6 0 10 -2 10 -4z m-1620 -30 c0 -2 -8 -10 -17 -17 -16 -13 -17 -12 -4 4
13 16 21 21 21 13z m51 -23 c-12 -20 -14 -14 -5 12 4 9 9 14 11 11 3 -2 0 -13
-6 -23z m1609 -33 c0 -5 -2 -10 -4 -10 -3 0 -8 5 -11 10 -3 6 -1 10 4 10 6 0
11 -4 11 -10z m35 -20 c-3 -4 0 -10 7 -12 8 -3 7 -6 -3 -10 -11 -4 -15 1 -15
17 0 13 4 21 8 19 5 -3 6 -9 3 -14z m-1755 0 c0 -5 -2 -10 -4 -10 -3 0 -8 5
-11 10 -3 6 -1 10 4 10 6 0 11 -4 11 -10z m60 0 c0 -5 -2 -10 -4 -10 -3 0 -8
5 -11 10 -3 6 -1 10 4 10 6 0 11 -4 11 -10z m-80 -81 c0 -5 -5 -9 -12 -9 -6 0
-8 3 -5 7 4 3 1 13 -6 22 -11 14 -10 14 6 2 9 -7 17 -17 17 -22z m1760 -59 c0
-5 -2 -10 -4 -10 -3 0 -8 5 -11 10 -3 6 -1 10 4 10 6 0 11 -4 11 -10z m94 -2
c-3 -4 -14 -6 -24 -5 -31 5 -32 13 -1 12 16 0 27 -3 25 -7z m-1849 -7 c-9 -8
-36 -10 -30 -2 2 4 11 8 20 8 8 0 13 -3 10 -6z m-33 -55 c4 -6 -3 -24 -15 -40
-12 -17 -20 -33 -19 -36 2 -2 -1 -6 -7 -8 -15 -5 -14 5 5 33 9 14 14 26 10 26
-3 1 -10 2 -15 3 -5 0 -13 6 -18 11 -4 6 -4 7 1 3 5 -4 15 -3 23 3 11 10 11
15 1 28 -12 15 -11 15 7 1 11 -8 23 -19 27 -24z m1865 11 c0 -8 -6 -14 -14
-14 -9 0 -10 4 -2 14 6 7 12 13 14 13 1 0 2 -6 2 -13z m-1933 -45 c3 -5 -1 -9
-9 -9 -8 0 -12 4 -9 9 3 4 7 8 9 8 2 0 6 -4 9 -8z m1971 -4 c5 4 5 2 1 -5 -3
-6 -2 -14 4 -18 13 -8 3 -25 -13 -25 -7 0 -6 4 3 10 8 5 10 10 5 10 -6 0 -16
10 -24 23 -13 19 -12 21 1 10 8 -7 19 -9 23 -5z m-1950 -66 c-3 -3 -11 0 -18
7 -9 10 -8 11 6 5 10 -3 15 -9 12 -12z m1966 -106 c-9 -11 -9 -15 1 -18 6 -2
13 -16 13 -31 2 -25 0 -26 -15 -12 -9 8 -19 14 -21 13 -2 -2 -1 1 3 7 15 17 8
27 -9 14 -13 -11 -13 -8 2 13 11 15 24 28 29 28 5 0 3 -6 -3 -14z m-54 -91 c0
-8 -4 -12 -9 -9 -5 3 -6 10 -3 15 9 13 12 11 12 -6z m-1942 -35 c3 -5 1 -10
-4 -10 -6 0 -11 5 -11 10 0 6 2 10 4 10 3 0 8 -4 11 -10z m1960 -60 c3 -5 1
-10 -4 -10 -6 0 -11 5 -11 10 0 6 2 10 4 10 3 0 8 -4 11 -10z m-1918 -68 c7 6
15 9 18 7 2 -3 -4 -10 -15 -16 -15 -10 -21 -9 -31 5 -11 14 -11 15 1 5 10 -9
17 -10 27 -1z m1900 -64 c-2 -7 0 -20 4 -30 7 -13 5 -15 -13 -10 -13 3 -17 7
-10 10 10 3 10 7 0 20 -10 12 -10 14 0 8 6 -4 12 -2 12 3 0 6 3 11 6 11 3 0 4
-6 1 -12z m-57 -68 c0 -5 -2 -10 -4 -10 -3 0 -8 5 -11 10 -3 6 -1 10 4 10 6 0
11 -4 11 -10z m43 -24 c4 -10 1 -13 -9 -9 -7 3 -14 9 -14 14 0 14 17 10 23 -5z
m-89 -54 c3 -5 -1 -9 -9 -9 -8 0 -12 4 -9 9 3 4 7 8 9 8 2 0 6 -4 9 -8z m27
-75 c-6 -6 -7 -16 -1 -27 8 -14 5 -17 -15 -17 -17 0 -25 5 -24 16 0 10 2 12 6
3 2 -6 9 -10 13 -7 5 3 7 12 4 20 -4 8 -11 12 -17 8 -6 -3 -7 -1 -3 5 4 6 14
8 23 5 12 -5 14 -3 8 7 -6 9 -4 11 4 5 9 -5 10 -10 2 -18z m-31 -73 c0 -3 -5
-2 -12 2 -6 4 -17 -1 -25 -11 -7 -11 -13 -14 -13 -8 0 7 5 15 10 18 6 4 7 11
4 17 -4 6 2 6 15 -1 11 -7 21 -14 21 -17z m-51 -40 c4 3 7 -4 7 -14 0 -10 -9
-21 -19 -24 -10 -2 -16 -2 -13 1 3 4 0 13 -7 21 -9 13 -9 14 1 8 8 -5 12 0 13
16 1 17 3 18 6 5 2 -9 8 -15 12 -13z m-79 -44 c-6 -11 -15 -20 -20 -20 -6 0
-2 9 7 20 10 11 19 20 21 20 1 0 -2 -9 -8 -20z m-1716 -12 c-5 -8 -2 -9 10 -5
10 4 15 3 11 -4 -8 -11 12 -39 28 -39 7 0 7 4 -1 12 -7 7 -12 17 -12 23 0 5 5
2 11 -7 5 -10 18 -18 27 -18 12 0 10 -4 -8 -13 -23 -12 -28 -10 -55 18 -18 18
-26 33 -20 37 14 11 17 10 9 -4z m136 -72 c0 -3 -4 -8 -10 -11 -5 -3 -10 -1
-10 4 0 6 5 11 10 11 6 0 10 -2 10 -4z m1482 -30 c6 4 5 -3 -2 -15 -14 -27
-30 -19 -22 11 3 12 7 17 10 10 2 -7 8 -9 14 -6z m-1404 -21 c-3 -3 -9 2 -12
12 -6 14 -5 15 5 6 7 -7 10 -15 7 -18z m10 -22 c4 3 14 1 22 -5 13 -8 13 -9
-1 -5 -9 3 -22 1 -30 -3 -15 -10 -42 7 -33 22 3 5 11 4 19 -2 8 -7 18 -9 23
-7z m329 -28 c0 -8 -4 -12 -9 -9 -5 3 -6 10 -3 15 9 13 12 11 12 -6z m-57 -25
c0 -5 -5 -10 -11 -10 -5 0 -7 5 -4 10 3 6 8 10 11 10 2 0 4 -4 4 -10z m891 -8
c-7 -2 -18 1 -23 6 -8 8 -4 9 13 5 13 -4 18 -8 10 -11z m-1016 -10 c-3 -3 -11
0 -18 7 -9 10 -8 11 6 5 10 -3 15 -9 12 -12z m101 -4 c4 -7 3 -8 -4 -4 -7 4
-12 2 -12 -5 0 -7 -3 -10 -6 -6 -6 5 3 27 11 27 2 0 7 -5 11 -12z m241 -8 c-1
-11 -5 -20 -9 -20 -10 0 -10 4 -2 24 8 22 13 20 11 -4z m78 2 c-3 -3 -11 0
-18 7 -9 10 -8 11 6 5 10 -3 15 -9 12 -12z m136 -5 c-10 -9 -11 -8 -5 6 3 10
9 15 12 12 3 -3 0 -11 -7 -18z m180 6 c13 -16 12 -17 -3 -4 -17 13 -22 21 -14
21 2 0 10 -8 17 -17z m66 -3 c-1 -21 -10 -18 -13 5 -1 8 2 15 6 15 5 0 8 -9 7
-20z m189 8 c3 -4 13 -4 22 -1 10 4 6 -3 -8 -14 -14 -12 -29 -19 -34 -15 -5 3
-1 9 10 13 20 8 20 8 -9 14 -27 5 -35 16 -9 12 12 -2 24 -6 28 -9z m-869 -28
c-1 -12 -5 -16 -10 -11 -5 5 -6 14 -3 20 11 16 15 13 13 -9z m743 5 c0 -12
-19 -12 -23 0 -4 9 -1 12 9 8 7 -3 14 -7 14 -8z m-655 -6 c11 -16 1 -19 -13
-3 -7 8 -8 14 -3 14 5 0 13 -5 16 -11z m22 -11 c-3 -8 -6 -5 -6 6 -1 11 2 17
5 13 3 -3 4 -12 1 -19z m83 2 c0 -5 -2 -10 -4 -10 -3 0 -8 5 -11 10 -3 6 -1
10 4 10 6 0 11 -4 11 -10z"/>
<path d="M3183 5183 c4 -3 1 -13 -6 -21 -9 -13 -9 -14 1 -8 6 4 12 3 12 -2 0
-4 13 -8 29 -8 17 0 28 3 25 8 -6 10 9 11 22 1 5 -5 1 0 -9 9 -19 18 -43 15
-32 -3 8 -12 -6 -11 -25 1 -11 7 -11 10 -2 10 7 0 10 5 7 10 -3 6 -11 10 -17
10 -6 0 -8 -3 -5 -7z"/>
<path d="M3536 5182 c-3 -4 4 -16 15 -25 22 -19 25 -10 5 16 -8 10 -17 14 -20
9z"/>
<path d="M3502 5166 c10 -7 14 -17 10 -21 -4 -5 -1 -5 6 -1 10 6 10 11 1 22
-6 8 -17 14 -23 14 -6 0 -3 -7 6 -14z"/>
<path d="M3710 5169 c0 -5 5 -7 10 -4 6 3 10 8 10 11 0 2 -4 4 -10 4 -5 0 -10
-5 -10 -11z"/>
<path d="M3772 5160 c-7 -12 -7 -17 4 -17 7 0 11 4 8 9 -3 4 4 8 15 8 12 0 21
4 21 8 0 14 -38 8 -48 -8z"/>
<path d="M3915 5171 c-3 -5 -18 -8 -34 -6 -16 2 -37 -3 -47 -11 -18 -14 -17
-14 4 -4 17 8 27 8 37 0 7 -6 19 -9 26 -8 8 2 13 -3 12 -9 -2 -7 2 -13 7 -13
13 0 13 17 0 25 -8 5 -7 11 1 21 6 8 9 14 6 14 -3 0 -8 -4 -12 -9z"/>
<path d="M3149 5165 c-1 -3 -2 -8 -3 -12 -1 -5 -5 -13 -9 -19 -4 -7 1 -18 11
-25 15 -12 16 -12 5 2 -15 19 -8 30 15 23 14 -5 14 -4 -1 6 -9 6 -15 15 -12
21 4 5 4 9 1 9 -3 0 -7 -2 -7 -5z"/>
<path d="M3730 5150 c0 -5 5 -10 10 -10 6 0 10 5 10 10 0 6 -4 10 -10 10 -5 0
-10 -4 -10 -10z"/>
<path d="M3536 5132 c-3 -5 1 -9 9 -9 8 0 12 4 9 9 -3 4 -7 8 -9 8 -2 0 -6 -4
-9 -8z"/>
<path d="M3855 5130 c3 -5 8 -10 11 -10 2 0 4 5 4 10 0 6 -5 10 -11 10 -5 0
-7 -4 -4 -10z"/>
<path d="M3984 5132 c4 -7 2 -12 -3 -12 -6 0 -11 -4 -11 -9 0 -5 14 -8 31 -7
22 2 35 -5 50 -23 11 -14 17 -19 13 -11 -16 33 -36 48 -56 42 -14 -3 -19 -1
-14 6 3 6 1 14 -5 18 -8 4 -9 3 -5 -4z"/>
<path d="M2880 5020 c12 -8 12 -10 1 -10 -8 0 -12 -2 -9 -5 3 -3 13 -2 22 1
14 5 15 9 4 15 -7 5 -17 9 -23 9 -5 0 -3 -5 5 -10z"/>
<path d="M2895 4989 c-4 -6 -5 -12 -2 -15 2 -3 7 2 10 11 7 17 1 20 -8 4z"/>
<path d="M2719 4645 c-1 -3 -2 -11 -3 -17 -1 -7 -9 -12 -19 -12 -15 2 -16 -1
-5 -13 8 -10 14 -11 16 -4 2 6 7 9 11 7 4 -3 7 6 7 20 0 21 -4 32 -7 19z"/>
<path d="M2694 4551 c0 -22 6 -32 25 -40 23 -10 24 -10 9 2 -18 15 -25 33 -9
23 11 -7 9 13 -2 32 -14 21 -23 13 -23 -17z m26 5 c0 -3 -4 -8 -10 -11 -5 -3
-10 -1 -10 4 0 6 5 11 10 11 6 0 10 -2 10 -4z"/>
<path d="M2699 4498 c-6 -21 -5 -38 2 -38 5 0 8 -5 7 -11 -2 -6 4 -14 12 -16
9 -3 11 -1 5 4 -16 13 -19 47 -3 37 10 -6 10 -4 -1 9 -12 16 -20 21 -22 15z"/>
<path d="M2706 4412 c-2 -4 4 -8 15 -8 10 0 19 4 19 8 0 4 -6 8 -14 8 -8 0
-17 -4 -20 -8z"/>
<path d="M2750 4345 c0 -8 2 -15 4 -15 2 0 6 7 10 15 3 8 1 15 -4 15 -6 0 -10
-7 -10 -15z"/>
<path d="M2793 4270 c-1 -11 2 -22 6 -24 4 -3 7 4 6 14 -2 27 -10 33 -12 10z"/>
<path d="M2770 4236 c0 -2 7 -7 16 -10 8 -3 12 -2 9 4 -6 10 -25 14 -25 6z"/>
<path d="M2816 4217 c3 -10 9 -15 12 -12 3 3 0 11 -7 18 -10 9 -11 8 -5 -6z"/>
<path d="M3625 5180 c-3 -6 1 -7 9 -4 18 7 21 14 7 14 -6 0 -13 -4 -16 -10z"/>
<path d="M2716 4801 c-4 -5 -2 -12 3 -15 5 -4 12 -2 15 3 4 5 2 12 -3 15 -5 4
-12 2 -15 -3z"/>
<path d="M4655 4561 c-3 -5 -2 -12 3 -15 5 -3 9 1 9 9 0 17 -3 19 -12 6z"/>
<path d="M5185 5665 c-233 -41 -385 -180 -430 -390 -40 -192 5 -369 127 -501
32 -33 54 -64 51 -68 -4 -4 0 -4 10 0 11 4 19 0 23 -10 3 -9 10 -14 14 -11 5
3 12 0 16 -6 4 -7 3 -9 -4 -5 -6 3 -13 2 -16 -3 -4 -5 5 -8 18 -7 13 2 34 -2
46 -9 19 -10 20 -13 6 -18 -9 -4 -20 1 -26 11 -11 16 -11 15 -6 -1 3 -10 6
-21 6 -23 0 -2 7 -4 15 -4 15 0 18 -7 18 -43 0 -12 3 -14 11 -8 12 10 41 -6
45 -24 1 -5 9 -9 17 -7 13 3 13 -1 4 -20 -10 -21 -10 -21 3 -5 13 15 16 15 27
2 7 -8 18 -15 24 -15 6 0 4 5 -4 10 -12 8 -10 9 7 7 12 -2 26 -6 29 -10 12
-11 42 -8 48 6 3 6 4 3 1 -9 -4 -14 0 -21 10 -21 8 0 15 4 15 9 0 18 16 6 17
-13 1 -12 7 -27 14 -33 9 -8 10 -8 5 2 -4 6 -3 12 3 12 5 0 18 3 28 6 17 6 17
6 -1 -8 -19 -15 -15 -39 7 -37 9 0 9 2 0 6 -7 2 -13 10 -13 15 0 6 3 8 7 5 10
-10 34 14 26 27 -4 6 1 5 10 -2 9 -8 21 -11 26 -7 7 3 8 0 5 -10 -5 -11 -10
-13 -19 -5 -9 8 -14 6 -19 -5 -4 -10 -2 -14 5 -9 6 4 15 1 19 -6 4 -7 13 -9
19 -6 6 4 9 12 6 17 -4 5 4 9 17 9 39 0 58 3 58 10 0 4 7 7 15 7 8 0 13 -3 10
-5 -3 -3 3 -15 12 -26 17 -20 17 -20 1 -7 -12 9 -18 10 -18 2 0 -10 14 -15 23
-8 2 1 12 -5 23 -13 17 -14 18 -14 6 2 -8 9 -11 22 -7 28 4 6 1 9 -6 8 -6 -2
-13 3 -15 10 -1 7 0 8 2 3 3 -6 13 -7 21 -4 12 5 15 2 10 -10 -8 -21 11 -33
26 -18 9 9 8 11 -3 8 -8 -2 -12 -2 -7 0 4 3 5 9 2 13 -3 5 -1 12 5 15 6 4 10
3 9 -2 -3 -20 2 -23 22 -12 12 6 24 7 28 3 12 -17 33 -14 38 6 3 11 9 20 15
20 5 0 4 -9 -2 -20 -10 -18 -8 -20 25 -20 20 0 34 -4 30 -9 -10 -17 12 -21 25
-6 10 12 16 13 26 4 8 -6 14 -8 14 -3 0 5 5 2 11 -6 9 -13 10 -13 6 0 -2 8 -9
15 -14 15 -6 0 -15 3 -19 7 -8 8 31 2 46 -7 6 -4 8 -11 5 -16 -4 -5 -2 -9 3
-9 22 0 21 31 -1 41 l-22 10 23 -5 c13 -2 26 2 33 12 9 15 10 15 5 -1 -4 -12
-2 -17 6 -14 7 2 13 11 13 20 0 8 4 18 8 21 4 3 5 3 2 0 -2 -4 1 -16 7 -28 7
-11 12 -27 13 -35 0 -8 7 -16 15 -18 13 -4 13 -3 0 6 -8 5 -11 13 -7 18 5 4
17 -3 28 -17 16 -20 18 -21 13 -5 -6 16 -5 18 7 8 7 -7 18 -13 23 -13 6 0 5 4
-2 8 -9 7 -7 13 9 28 13 10 19 13 15 7 -5 -9 0 -13 15 -13 18 0 20 -3 11 -12
-8 -8 -15 -8 -29 3 -15 12 -15 10 1 -9 14 -16 22 -19 27 -10 9 15 37 19 45 6
3 -5 14 -2 26 8 16 16 21 16 28 4 8 -13 10 -13 11 0 0 10 3 9 8 -4 7 -19 8
-19 13 2 4 12 3 20 0 18 -4 -2 -16 1 -27 5 -18 9 -18 9 3 5 13 -3 25 1 28 8 3
7 12 13 21 13 14 0 14 -2 -1 -13 -10 -7 -13 -15 -7 -18 5 -4 12 -3 15 2 6 11
77 9 94 -1 7 -5 19 -4 26 2 9 7 16 7 24 -1 9 -9 12 -9 12 3 0 12 2 12 10 -1 5
-8 15 -15 22 -15 8 0 13 -22 16 -64 8 -126 -59 -219 -178 -247 -19 -4 -366 -8
-770 -8 l-735 -1 -3 -168 -2 -167 82 -1 c46 -1 91 0 102 1 16 1 16 0 5 -13 -8
-8 -16 -13 -19 -12 -3 2 -12 -1 -20 -6 -11 -7 -6 -8 15 -4 16 2 35 11 41 20 9
12 11 5 9 -30 -2 -47 -26 -87 -39 -66 -4 6 0 11 8 11 23 0 19 15 -4 17 -11 1
-19 -4 -17 -10 1 -7 -4 -11 -11 -9 -8 1 -11 -2 -7 -8 3 -6 10 -8 15 -5 5 3 11
1 14 -4 4 -5 2 -12 -4 -16 -5 -3 -10 -12 -10 -18 0 -7 5 -4 11 5 5 10 20 23
32 29 21 11 21 11 6 -7 -18 -22 -36 -53 -24 -42 4 4 16 3 25 -2 13 -7 22 -5
31 7 10 12 10 15 2 9 -8 -4 -13 -2 -13 6 0 10 -3 9 -10 -2 -5 -8 -12 -11 -17
-7 -16 16 22 26 44 12 20 -13 23 -13 33 3 11 16 11 16 6 -2 -5 -14 -2 -17 10
-12 15 6 15 4 0 -19 -9 -14 -12 -25 -7 -25 5 0 12 8 15 17 6 15 8 15 17 3 8
-11 9 -10 4 7 -3 13 -1 31 5 40 10 16 10 16 5 -2 -4 -16 0 -21 15 -21 14 0 19
5 15 16 -3 9 1 7 10 -5 19 -24 27 -23 36 2 7 17 8 17 8 1 1 -10 6 -18 11 -18
9 0 14 14 11 33 0 4 4 7 10 7 6 0 8 -8 4 -19 -3 -11 0 -23 6 -27 7 -4 9 -3 6
2 -3 6 -2 16 3 24 7 11 9 8 7 -10 0 -14 -8 -31 -17 -39 -10 -9 -7 -8 10 2 17
10 25 23 24 40 0 14 4 23 9 20 4 -3 6 -11 3 -19 -3 -8 0 -14 6 -14 6 0 4 -8
-5 -18 -14 -15 -15 -19 -2 -19 8 0 12 4 9 8 -2 4 0 10 5 14 5 3 8 14 6 25 -2
12 0 18 5 15 4 -3 7 -16 5 -30 -2 -20 0 -23 11 -14 8 6 11 16 7 22 -3 5 -1 7
5 3 6 -3 13 2 15 11 4 17 5 17 6 0 1 -14 8 -18 29 -15 15 1 30 7 34 13 5 6 8
5 8 -3 0 -10 5 -10 21 -2 22 12 35 8 25 -9 -4 -6 -13 -8 -21 -4 -8 3 -15 -1
-15 -8 0 -7 3 -9 7 -6 3 4 15 -1 25 -10 13 -12 18 -13 16 -4 -2 7 3 16 10 18
8 3 10 -2 6 -14 -5 -17 -5 -16 7 1 11 18 12 18 30 -5 11 -13 17 -17 13 -8 -3
10 -1 20 5 23 6 4 8 13 4 21 -3 8 0 15 7 15 6 0 8 -4 5 -10 -7 -12 28 -14 39
-2 4 4 17 7 29 7 12 1 21 6 19 13 -1 7 3 12 9 12 6 0 9 -7 6 -15 -4 -8 -2 -17
3 -20 5 -3 10 0 13 7 2 7 3 5 2 -4 -2 -11 2 -15 12 -11 8 3 13 14 10 24 -3 11
-1 17 4 13 5 -3 9 -11 9 -17 0 -7 9 -13 20 -14 13 -1 18 2 14 9 -4 7 -2 8 4 4
7 -4 12 -2 12 5 0 7 6 4 14 -7 15 -19 15 -19 30 1 12 14 14 15 10 4 -3 -10 0
-20 7 -25 7 -4 10 -3 5 4 -15 24 17 22 52 -4 l37 -29 -17 27 c-24 37 -22 42 5
15 13 -12 21 -27 19 -33 -2 -7 2 -15 9 -20 8 -4 10 -3 5 5 -4 6 -2 19 6 28 7
9 8 14 2 10 -6 -4 -20 3 -30 16 -19 22 -19 22 1 6 23 -18 101 -27 91 -10 -4 6
-2 11 3 11 14 0 14 -17 1 -25 -5 -3 -7 -12 -3 -21 5 -12 7 -12 18 3 7 9 12 22
11 28 -2 5 -1 7 1 2 3 -4 9 -4 15 -1 6 4 6 -2 -1 -14 -17 -32 -13 -37 9 -11
16 21 17 25 4 35 -12 10 -12 12 4 16 16 5 19 1 16 -23 -2 -15 1 -31 6 -34 6
-3 10 -1 10 5 0 6 4 9 9 5 5 -3 12 -1 16 4 3 6 -3 8 -14 6 -15 -3 -18 1 -13
18 5 18 7 19 10 4 2 -9 7 -15 12 -12 15 9 22 -15 10 -30 -7 -8 -9 -15 -5 -15
4 0 14 8 21 17 9 14 10 21 1 33 -11 13 -10 13 7 0 18 -14 19 -13 13 2 -4 12
-2 15 8 11 8 -3 12 -9 9 -14 -3 -5 4 -9 14 -9 12 0 19 -6 18 -16 0 -9 5 -18
12 -20 7 -1 8 0 2 3 -5 2 -10 9 -10 14 0 6 4 8 9 4 5 -3 13 0 17 6 4 7 3 10
-2 6 -5 -3 -18 2 -29 10 -12 9 -14 13 -5 11 8 -3 21 2 28 11 8 9 11 10 7 3 -4
-7 -1 -19 5 -27 6 -8 8 -20 4 -27 -6 -9 -3 -9 10 1 12 10 14 17 6 25 -5 5 -10
15 -10 20 0 6 5 3 11 -7 10 -18 11 -18 32 0 11 10 17 13 14 6 -4 -6 0 -16 9
-21 13 -7 14 -13 5 -33 -11 -22 -11 -22 3 -6 8 10 17 18 20 18 19 -2 26 0 26
10 0 5 -4 8 -9 5 -4 -3 -17 1 -27 9 -10 8 -14 15 -9 15 6 0 17 -6 24 -12 12
-11 13 -9 7 7 -6 19 -5 19 8 3 14 -19 32 -25 21 -8 -3 6 -1 10 4 10 6 0 11 -4
11 -9 0 -14 31 -7 44 10 6 8 18 15 26 17 10 1 9 -3 -5 -14 -20 -16 -20 -16 3
-9 13 4 22 2 22 -5 0 -6 -4 -9 -8 -6 -12 7 -38 -12 -29 -21 5 -4 12 -1 17 7 6
8 10 11 10 5 0 -5 7 -1 15 9 12 16 12 22 2 35 -11 14 -10 14 5 2 10 -7 15 -18
11 -24 -3 -6 -1 -7 5 -3 7 4 12 2 12 -3 0 -6 -5 -11 -12 -11 -6 0 -8 -3 -5 -7
4 -3 15 0 24 8 30 25 71 40 79 28 4 -8 9 -7 15 2 9 15 3 29 -14 29 -7 0 -6 -4
3 -11 12 -9 12 -10 -4 -5 -10 4 -24 2 -31 -4 -9 -7 -16 -5 -26 7 -11 15 -11
16 0 6 11 -9 18 -9 35 1 11 8 41 13 66 11 39 -2 46 1 47 18 2 18 1 18 -10 3
-12 -16 -13 -16 -13 3 0 11 3 18 7 16 10 -7 40 31 32 40 -5 4 -3 5 4 2 6 -4
14 -1 16 5 4 10 6 10 6 0 1 -7 5 -11 10 -7 5 3 13 0 17 -6 4 -7 3 -9 -4 -5 -6
3 -13 2 -17 -4 -4 -6 -11 -7 -17 -4 -7 5 -8 2 -3 -6 6 -9 4 -11 -5 -5 -9 6
-11 4 -5 -5 6 -9 4 -11 -5 -5 -9 6 -11 4 -6 -4 6 -9 13 -8 28 6 11 10 22 17
24 16 11 -7 25 -2 23 10 -3 25 1 38 11 32 6 -4 7 -11 4 -17 -4 -7 -2 -8 5 -4
9 6 9 11 1 21 -9 11 -6 21 11 44 12 17 27 27 33 24 6 -3 6 0 -1 7 -9 10 -16
10 -26 2 -10 -9 -14 -9 -14 1 0 16 37 20 54 5 10 -8 17 -8 26 1 9 10 8 11 -5
6 -13 -5 -16 -2 -13 14 2 11 1 20 -3 20 -4 -1 -14 -1 -22 0 -13 1 -13 3 -1 10
9 6 22 6 32 1 22 -12 32 -1 17 18 -10 11 -8 18 9 32 16 13 19 20 10 29 -12 12
3 16 19 4 5 -5 -6 7 -24 25 -18 17 -28 32 -22 32 6 0 8 5 4 13 -5 8 -2 8 9 -2
20 -16 22 -8 5 22 -10 20 -10 21 5 9 13 -11 17 -10 26 7 10 18 8 19 -22 16
-17 -2 -26 -1 -19 2 6 2 12 9 12 14 0 6 -4 8 -8 5 -5 -3 -9 1 -9 9 0 8 4 12 8
10 3 -3 12 2 19 9 9 12 7 17 -8 25 -17 9 -21 27 -12 51 8 19 3 38 -15 60 l-20
25 23 -19 c19 -16 22 -17 22 -3 0 9 -9 19 -20 22 -11 4 -18 11 -15 16 4 5 0
12 -8 15 -7 2 -14 12 -14 21 0 14 1 14 12 -1 18 -24 26 -7 9 18 -8 13 -11 26
-7 31 5 4 1 5 -7 3 -8 -3 -14 -11 -12 -18 3 -11 0 -11 -12 0 -9 7 -16 15 -16
18 0 3 3 2 7 -1 3 -4 12 -2 19 4 16 13 37 2 28 -14 -4 -7 -1 -6 7 2 11 11 11
14 1 18 -7 3 -18 10 -25 17 -7 7 -19 15 -27 19 -13 5 -13 6 1 6 8 1 20 -4 27
-11 8 -8 12 -8 12 -1 0 6 -13 16 -30 22 -16 5 -30 13 -30 16 0 3 4 3 10 0 5
-3 7 0 4 9 -3 9 -12 12 -22 8 -15 -5 -15 -4 -3 11 17 21 8 22 -23 2 -22 -15
-24 -15 -22 2 0 11 -5 17 -14 15 -8 -2 -12 0 -7 4 4 4 -1 16 -10 27 -10 11
-12 17 -5 13 6 -4 12 -2 12 4 0 6 5 8 12 4 6 -4 8 -3 5 4 -4 5 -17 8 -30 5
-18 -4 -19 -3 -7 6 13 9 12 11 -4 11 -12 0 -16 5 -13 15 4 8 1 17 -5 21 -7 5
-8 2 -4 -7 4 -8 0 -5 -9 6 -81 101 -189 169 -302 190 -16 3 -39 8 -53 11 -14
3 -250 7 -525 8 -275 1 -506 5 -513 10 -6 4 -16 5 -21 1 -5 -3 -12 -1 -16 5
-4 6 -10 8 -15 5 -5 -3 -12 0 -16 6 -5 8 -3 9 6 4 10 -6 12 -4 7 8 -3 9 -1 19
5 23 7 5 8 2 3 -6 -5 -9 -4 -11 4 -6 6 4 20 2 29 -6 15 -11 15 -11 5 3 -7 9
-9 20 -5 24 4 5 2 6 -3 2 -6 -3 -17 -2 -25 3 -11 7 -18 3 -26 -13 -12 -21 -12
-21 -11 5 1 14 4 24 6 22 2 -2 11 2 19 9 9 6 13 7 9 1 -3 -6 0 -11 8 -11 21 0
-1 25 -26 29 -17 3 -16 4 5 14 18 8 23 8 20 0 -2 -6 5 -17 16 -23 16 -11 18
-10 14 2 -4 8 -10 15 -16 15 -5 0 -7 4 -4 9 3 5 -1 14 -9 21 -15 12 -11 35 5
25 4 -3 11 2 14 11 4 12 2 15 -9 10 -8 -3 -15 -3 -15 0 0 2 12 9 26 14 14 6
22 14 19 20 -4 6 1 7 11 3 11 -4 15 -3 10 5 -3 6 -2 13 4 17 6 4 8 11 5 16 -3
5 1 6 9 3 10 -4 14 -15 12 -30 -3 -13 -1 -26 3 -28 6 -4 10 10 13 51 1 7 6 10
11 6 5 -3 7 5 3 18 -3 13 -3 18 0 11 3 -6 10 -9 16 -6 5 3 2 -9 -7 -27 -10
-19 -14 -31 -10 -27 5 4 15 2 24 -4 13 -10 14 -10 4 2 -16 18 -17 34 -1 24 6
-4 8 -3 5 3 -8 12 20 39 30 30 3 -4 12 -2 19 4 8 7 14 7 19 -1 5 -8 14 -6 28
7 13 11 18 12 11 3 -8 -11 -4 -21 14 -39 16 -15 23 -17 19 -7 -4 9 -10 23 -13
31 -3 8 -1 15 6 15 6 0 9 -3 7 -7 -3 -5 1 -13 8 -20 9 -8 15 -9 17 -2 2 5 10
11 18 13 8 2 23 6 33 11 21 9 32 1 22 -14 -3 -6 -17 -9 -30 -7 -18 3 -28 -2
-40 -22 l-16 -27 20 23 c11 13 22 18 26 12 4 -7 13 -6 27 1 19 10 20 9 15 -10
-3 -12 -1 -19 4 -15 5 3 9 11 9 19 0 17 28 13 41 -6 8 -10 9 -8 4 9 -5 18 -2
22 16 22 12 0 30 7 40 16 16 14 17 14 15 -3 -2 -10 -8 -18 -14 -18 -7 0 -19
-11 -29 -25 l-17 -25 36 28 c22 16 39 23 43 17 3 -5 1 -10 -6 -10 -7 0 -10 -2
-7 -5 8 -8 38 6 38 17 0 5 -4 6 -10 3 -6 -3 -7 1 -4 10 6 14 8 14 20 -2 7 -10
14 -14 14 -9 0 5 7 3 15 -4 8 -7 15 -9 16 -4 0 5 5 0 10 -11 l9 -20 -3 20 c-2
11 -9 19 -16 17 -7 -1 -10 2 -6 7 3 6 -3 8 -15 6 -11 -2 -18 0 -15 6 4 5 11 6
17 3 8 -5 9 -1 5 12 -6 15 -3 13 11 -5 11 -13 25 -21 33 -19 20 7 71 -21 63
-34 -5 -7 -3 -8 5 -3 9 5 7 13 -8 29 -15 15 -17 25 -10 36 9 13 9 13 7 0 -2
-8 7 -25 20 -38 12 -12 22 -18 22 -14 0 4 9 8 20 9 13 1 18 -2 14 -9 -5 -7 -2
-8 7 -2 30 19 45 12 40 -19 -1 -5 3 -6 9 -2 7 4 7 12 0 25 -12 23 -8 56 10 73
10 10 11 9 4 -3 -24 -41 -8 -55 39 -35 23 10 35 -2 17 -18 -10 -9 -11 -9 -6 1
8 14 -10 17 -18 3 -3 -5 2 -12 11 -16 10 -3 19 -1 21 4 2 6 8 9 12 6 5 -3 6
-13 3 -23 -6 -16 -6 -16 11 0 17 18 13 44 -5 33 -5 -4 -9 -1 -9 5 0 6 12 8 29
5 22 -4 33 0 40 12 9 15 10 14 8 -9 -1 -15 2 -27 7 -27 5 0 13 -5 18 -13 8
-10 9 -10 5 2 -3 10 5 20 19 27 13 6 22 7 18 2 -3 -5 0 -9 7 -9 6 0 9 8 6 20
-3 12 -1 18 5 14 5 -3 7 -17 3 -31 -4 -16 -2 -22 5 -18 5 3 10 -1 10 -9 0 -9
5 -16 11 -16 5 0 7 5 3 12 -13 21 -13 60 -1 50 17 -12 36 -9 48 8 9 13 10 12
5 -2 -3 -10 -1 -20 4 -23 6 -4 11 -1 11 4 3 26 4 30 11 37 7 6 6 -5 -4 -46 -2
-9 4 -15 17 -15 11 -1 19 -6 18 -13 -2 -7 2 -12 7 -12 6 0 10 4 10 9 0 5 7 12
16 15 12 5 15 2 10 -11 -6 -17 -5 -17 8 0 11 14 15 15 25 4 6 -8 7 -18 3 -22
-4 -5 -1 -5 6 -1 7 4 9 13 5 19 -4 7 -8 17 -8 22 -1 6 -6 9 -13 8 -7 -2 -12 2
-12 7 0 17 18 11 33 -11 8 -11 18 -16 21 -11 3 6 1 12 -5 14 -7 2 -5 9 5 17
14 12 16 12 10 -2 -3 -10 2 -20 15 -26 25 -14 41 -14 21 0 -12 8 -11 9 5 7 13
-3 19 -10 17 -23 -2 -15 -1 -17 6 -6 6 7 16 11 23 7 8 -4 4 1 -8 10 -24 17
-30 34 -12 34 5 0 7 -4 4 -10 -3 -5 0 -10 8 -10 8 0 27 -9 43 -21 26 -19 25
-18 -4 10 -40 38 -35 39 21 5 l42 -27 -24 27 c-14 14 -20 26 -14 26 6 0 13 -5
15 -11 2 -5 21 -12 42 -14 26 -2 35 0 25 6 -13 8 -12 10 11 13 6 0 9 6 8 11
-2 6 -6 9 -10 8 -5 -2 -8 4 -8 12 0 18 20 16 39 -5 8 -10 8 -6 -2 11 -12 20
-13 29 -4 40 10 11 9 11 -5 0 -10 -7 -15 -18 -11 -25 4 -6 0 -5 -9 2 -11 9
-18 9 -21 2 -3 -6 -4 -5 -3 2 2 7 9 12 15 11 12 -3 10 24 -3 46 -6 10 -5 12 2
7 8 -4 12 1 13 13 1 20 4 32 9 49 1 4 2 10 1 15 -1 7 15 11 32 8 5 -1 6 3 2 8
-3 6 -12 8 -20 5 -9 -4 -12 1 -10 13 1 10 8 17 15 15 6 -1 9 2 5 8 -3 6 -10 8
-15 5 -4 -3 -11 2 -14 11 -9 22 -8 26 6 18 6 -4 8 -3 5 3 -3 5 -16 9 -29 8
-28 -3 -61 13 -53 25 3 5 0 12 -6 16 -8 5 -9 3 -4 -6 5 -9 1 -11 -16 -6 -13 3
-18 3 -11 0 10 -5 10 -9 0 -22 -11 -13 -11 -14 2 -7 8 4 12 5 8 0 -4 -4 -3
-14 3 -21 7 -9 6 -12 -8 -9 -10 1 -17 8 -16 14 4 15 -14 14 -20 -1 -3 -8 -6
-6 -6 5 -1 9 3 17 7 17 5 0 9 7 9 16 0 14 -2 14 -14 -2 -7 -10 -14 -23 -14
-28 -4 -33 -15 60 -14 120 l0 72 -715 -1 c-523 0 -734 -3 -785 -12z m1609
-170 c10 -8 22 -12 26 -10 4 3 13 -2 20 -11 15 -17 21 -92 8 -100 -4 -3 -6 -9
-3 -14 3 -4 -3 -14 -13 -21 -15 -12 -16 -12 -6 1 6 8 10 25 8 38 -2 13 1 22 9
22 9 0 9 2 -1 9 -7 4 -12 12 -11 17 4 21 -2 34 -13 32 -7 -2 -12 3 -10 11 2 8
-3 11 -12 8 -10 -4 -20 2 -26 13 -13 23 -3 25 24 5z m-49 -53 c-3 -3 -11 0
-18 7 -9 10 -8 11 6 5 10 -3 15 -9 12 -12z m69 -11 c-2 -3 -12 3 -22 13 -16
17 -16 18 5 5 12 -7 20 -15 17 -18z m-26 -26 c-3 -3 -9 2 -12 12 -6 14 -5 15
5 6 7 -7 10 -15 7 -18z m2 -49 c0 -3 -4 -8 -10 -11 -5 -3 -10 -1 -10 4 0 6 5
11 10 11 6 0 10 -2 10 -4z m-1180 -46 c0 -5 -4 -10 -10 -10 -5 0 -10 5 -10 10
0 6 5 10 10 10 6 0 10 -4 10 -10z m297 -55 c0 -8 -4 -12 -9 -9 -5 3 -6 10 -3
15 9 13 12 11 12 -6z m480 0 c0 -8 -4 -12 -9 -9 -5 3 -6 10 -3 15 9 13 12 11
12 -6z m117 -34 c-2 -3 -12 3 -22 13 -16 17 -16 18 5 5 12 -7 20 -15 17 -18z
m239 15 c3 3 4 -1 3 -10 -1 -8 -5 -18 -9 -21 -4 -3 -5 -2 -2 2 3 3 -3 16 -12
27 -14 15 -14 18 -2 8 9 -6 18 -9 22 -6z m-1240 -11 c4 -8 3 -16 -1 -19 -4 -3
-9 4 -9 15 -2 23 3 25 10 4z m58 -2 c13 -16 12 -17 -3 -5 -9 8 -23 10 -29 6
-8 -4 -9 -3 -5 4 10 17 21 15 37 -5z m59 -17 c-7 -7 -15 -5 -22 3 -11 10 -10
11 5 5 14 -5 16 -2 11 12 -5 16 -4 16 5 4 6 -9 7 -18 1 -24z m319 20 c8 -10 9
-16 1 -21 -6 -4 -9 -1 -8 7 2 7 -3 12 -10 10 -8 -1 -11 2 -7 8 8 13 10 13 24
-4z m388 -1 c0 -8 -4 -12 -9 -9 -5 3 -6 10 -3 15 9 13 12 11 12 -6z m298 -3
c-3 -3 -11 0 -18 7 -9 10 -8 11 6 5 10 -3 15 -9 12 -12z m161 -8 c1 -9 0 -13
-4 -10 -3 4 -7 14 -8 22 -1 9 0 13 4 10 3 -4 7 -14 8 -22z m44 -11 c0 -4 -3
-8 -7 -8 -5 0 -15 -4 -23 -10 -13 -7 -13 -6 -2 7 7 9 9 24 5 34 -6 18 -6 18
10 2 10 -10 18 -21 17 -25z m-1145 -1 c0 -16 -5 -29 -12 -29 -8 0 -9 6 -2 19
5 10 7 18 4 18 -4 0 -3 5 0 10 9 15 11 13 10 -18z m85 14 c0 -2 -8 -10 -17
-17 -16 -13 -17 -12 -4 4 13 16 21 21 21 13z m271 -14 c-7 -2 -18 1 -23 6 -8
8 -4 9 13 5 13 -4 18 -8 10 -11z m549 8 c0 -5 -2 -10 -4 -10 -3 0 -8 5 -11 10
-3 6 -1 10 4 10 6 0 11 -4 11 -10z m-1223 -13 c0 -8 -6 -14 -14 -14 -9 0 -10
4 -2 14 6 7 12 13 14 13 1 0 2 -6 2 -13z m90 7 c-3 -3 -12 -4 -19 -1 -8 3 -5
6 6 6 11 1 17 -2 13 -5z m350 -16 c-3 -8 -6 -5 -6 6 -1 11 2 17 5 13 3 -3 4
-12 1 -19z m265 4 c4 -14 -2 -17 -33 -17 -20 0 -35 3 -33 7 3 5 -3 8 -12 8
-10 0 -15 3 -11 6 3 4 14 3 24 -1 30 -13 53 -12 53 2 0 19 7 16 12 -5z m234 6
c4 -7 4 -10 -1 -6 -4 4 -14 0 -22 -10 -13 -15 -13 -15 -3 6 12 25 16 27 26 10z
m-716 -2 c0 -3 -4 -8 -10 -11 -5 -3 -10 -1 -10 4 0 6 5 11 10 11 6 0 10 -2 10
-4z m140 0 c0 -2 -7 -6 -15 -10 -8 -3 -15 -1 -15 4 0 6 7 10 15 10 8 0 15 -2
15 -4z m814 -13 c4 -10 4 -14 0 -11 -4 4 -15 3 -25 -2 -12 -7 -20 -7 -24 0 -4
6 -11 8 -16 5 -5 -4 -9 -1 -9 5 0 7 7 10 15 7 8 -4 17 -2 20 3 10 16 32 11 39
-7z m116 13 c0 -2 -9 -6 -20 -9 -11 -3 -18 -1 -14 4 5 9 34 13 34 5z m-1354
-41 c1 -8 -2 -15 -6 -15 -5 0 -8 9 -7 20 1 21 10 18 13 -5z m-182 -51 c3 -8 2
-12 -4 -9 -6 3 -10 10 -10 16 0 14 7 11 14 -7z m119 -29 c-3 -9 -8 -14 -10
-11 -3 3 -2 9 2 15 9 16 15 13 8 -4z m2 -34 c3 -5 2 -12 -3 -15 -5 -3 -9 1 -9
9 0 17 3 19 12 6z m-38 -84 c0 -8 -6 -14 -14 -14 -9 0 -10 4 -2 14 6 7 12 13
14 13 1 0 2 -6 2 -13z m-121 -348 c2 -32 5 -35 14 -14 9 20 9 20 9 0 1 -12 6
-26 12 -32 8 -8 7 -13 -2 -18 -7 -5 -10 -4 -5 3 7 12 -32 38 -49 33 -5 -1 -7
1 -3 4 4 4 3 16 -3 26 -8 15 -6 17 7 12 13 -5 15 -3 9 8 -5 8 -5 11 1 6 5 -5
10 -17 10 -28z m61 -9 c1 -11 -2 -22 -6 -24 -6 -4 -7 26 -2 42 3 8 7 -1 8 -18z
m20 -37 c-4 -3 -2 -12 4 -19 6 -7 6 -14 1 -18 -6 -3 -16 1 -23 10 -10 13 -10
17 2 25 17 10 25 12 16 2z m93 -8 c0 -1 -10 -10 -22 -21 -14 -12 -18 -13 -10
-3 6 9 10 18 7 21 -3 2 2 5 10 5 8 0 15 -1 15 -2z m1562 -49 c11 -15 10 -26
-2 -26 -5 0 -9 5 -7 12 1 7 -3 12 -10 13 -19 0 -24 12 -5 12 9 0 20 -5 24 -11z
m-1375 -9 c0 -8 -6 -14 -14 -14 -9 0 -10 4 -2 14 6 7 12 13 14 13 1 0 2 -6 2
-13z m338 -7 c3 -5 1 -10 -4 -10 -6 0 -11 5 -11 10 0 6 2 10 4 10 3 0 8 -4 11
-10z m262 -12 c2 -17 0 -19 -7 -8 -5 8 -6 18 -4 22 8 12 10 10 11 -14z m58 12
c3 -5 1 -10 -4 -10 -6 0 -11 5 -11 10 0 6 2 10 4 10 3 0 8 -4 11 -10z m262
-15 c0 -8 -4 -15 -9 -15 -10 0 -11 14 -1 23 9 10 10 9 10 -8z m-514 -7 c-2 -5
-10 -8 -18 -8 -8 0 -16 3 -18 8 -3 4 5 7 18 7 13 0 21 -3 18 -7z m179 -17 c5
-22 -29 -21 -49 2 -12 13 -13 17 -3 12 27 -16 42 -15 35 3 -4 11 -3 14 4 7 5
-5 11 -16 13 -24z m141 17 c-2 -5 -10 -8 -18 -8 -8 0 -16 3 -18 8 -3 4 5 7 18
7 13 0 21 -3 18 -7z m265 -13 c-3 -3 -9 2 -12 12 -6 14 -5 15 5 6 7 -7 10 -15
7 -18z m417 -3 c-3 -3 -11 0 -18 7 -9 10 -8 11 6 5 10 -3 15 -9 12 -12z
m-1045 -1 c0 -5 -6 -14 -14 -20 -12 -10 -13 -8 -9 8 5 21 23 30 23 12z m320 0
c0 -6 9 -8 21 -6 17 4 19 2 9 -11 -9 -10 -16 -11 -25 -4 -6 5 -15 7 -18 3 -4
-3 -7 1 -7 10 0 10 5 17 10 17 6 0 10 -4 10 -9z m778 -187 c-3 -14 -5 -12 -10
9 -3 19 -2 25 4 19 6 -6 8 -18 6 -28z m-23 -2 c-3 -3 -11 0 -18 7 -9 10 -8 11
6 5 10 -3 15 -9 12 -12z m0 -51 c3 -5 2 -12 -3 -15 -5 -3 -9 1 -9 9 0 17 3 19
12 6z m25 -115 c0 -3 -4 -8 -10 -11 -5 -3 -10 -1 -10 4 0 6 5 11 10 11 6 0 10
-2 10 -4z m-50 -26 c8 -5 11 -10 5 -10 -5 0 -17 5 -25 10 -8 5 -10 10 -5 10 6
0 17 -5 25 -10z m67 -70 c0 -8 -6 -23 -15 -32 -13 -15 -13 -20 -1 -35 13 -16
12 -17 -4 -4 -10 8 -16 19 -14 25 3 6 -2 18 -9 27 -12 13 -12 16 1 16 8 0 12
-4 9 -8 -2 -4 0 -10 6 -14 5 -3 11 0 11 7 2 18 1 21 -7 43 -7 17 -6 18 7 5 9
-8 16 -21 16 -30z m-109 -178 c-7 -10 -13 -18 -14 -20 -1 -2 -4 4 -7 12 -4 9
-1 15 6 13 7 -1 11 4 9 11 -1 8 2 11 8 7 8 -5 7 -12 -2 -23z m-23 -32 c3 -5 2
-10 -4 -10 -5 0 -13 5 -16 10 -3 6 -2 10 4 10 5 0 13 -4 16 -10z m-1404 -37
c13 -16 12 -17 -3 -4 -10 7 -18 15 -18 17 0 8 8 3 21 -13z m839 13 c0 -2 -8
-10 -17 -17 -16 -13 -17 -12 -4 4 13 16 21 21 21 13z m-269 -69 c-10 -9 -11
-8 -5 6 3 10 9 15 12 12 3 -3 0 -11 -7 -18z m-877 -13 c3 -8 2 -12 -4 -9 -6 3
-10 10 -10 16 0 14 7 11 14 -7z m366 6 c0 -5 -2 -10 -4 -10 -3 0 -8 5 -11 10
-3 6 -1 10 4 10 6 0 11 -4 11 -10z m671 -13 c-10 -9 -11 -8 -5 6 3 10 9 15 12
12 3 -3 0 -11 -7 -18z m389 13 c0 -5 -2 -10 -4 -10 -3 0 -8 5 -11 10 -3 6 -1
10 4 10 6 0 11 -4 11 -10z m-303 -15 c0 -8 -4 -12 -9 -9 -5 3 -6 10 -3 15 9
13 12 11 12 -6z m43 11 c0 -2 -8 -10 -17 -17 -16 -13 -17 -12 -4 4 13 16 21
21 21 13z m-330 -12 c0 -8 -19 -13 -24 -6 -3 5 1 9 9 9 8 0 15 -2 15 -3z m526
-19 c1 -8 -2 -15 -6 -15 -5 0 -8 9 -7 20 1 21 10 18 13 -5z m124 -7 c0 -15
-15 -8 -28 12 -12 19 -11 20 8 8 11 -7 20 -16 20 -20z m-1120 6 c0 -8 -19 -13
-24 -6 -3 5 1 9 9 9 8 0 15 -2 15 -3z m300 2 c0 -3 -4 -8 -10 -11 -5 -3 -10
-1 -10 4 0 6 5 11 10 11 6 0 10 -2 10 -4z m225 -16 c3 -5 -4 -6 -15 -3 -11 3
-22 9 -25 13 -3 5 4 6 15 3 11 -3 22 -9 25 -13z m175 16 c0 -3 -4 -8 -10 -11
-5 -3 -10 -1 -10 4 0 6 5 11 10 11 6 0 10 -2 10 -4z m160 0 c0 -3 -4 -8 -10
-11 -5 -3 -10 -1 -10 4 0 6 5 11 10 11 6 0 10 -2 10 -4z m-777 -13 c-7 -3 -13
-9 -13 -14 0 -6 4 -8 9 -4 5 3 12 1 15 -4 4 -5 2 -12 -3 -15 -5 -4 -12 -2 -16
4 -4 6 -10 8 -14 6 -3 -3 -7 3 -7 13 0 10 8 17 21 18 11 1 14 -1 8 -4z m-57
-31 c-17 -16 -18 -16 -5 5 7 12 15 20 18 17 3 -2 -3 -12 -13 -22z"/>
<path d="M6816 5472 c-3 -5 1 -9 9 -9 8 0 12 4 9 9 -3 4 -7 8 -9 8 -2 0 -6 -4
-9 -8z"/>
<path d="M6505 5180 c-3 -6 1 -7 9 -4 18 7 21 14 7 14 -6 0 -13 -4 -16 -10z"/>
<path d="M6949 5574 c0 -57 -1 -120 -1 -139 0 -19 1 -48 1 -64 l1 -28 70 2
c39 1 70 -1 70 -6 0 -4 9 -5 20 -2 16 4 19 0 17 -23 -1 -16 -9 -35 -17 -42
-13 -11 -13 -11 1 -7 12 5 16 -2 16 -29 0 -21 -4 -33 -10 -29 -6 3 -7 1 -3 -6
6 -9 11 -9 22 0 11 9 14 8 14 -5 0 -11 5 -14 12 -10 8 5 4 13 -11 25 -12 10
-17 20 -11 24 5 3 10 0 10 -7 0 -11 2 -11 9 0 6 10 10 10 21 -2 7 -9 16 -13
21 -10 5 3 9 0 9 -5 0 -14 -17 -14 -25 -1 -3 6 -11 10 -17 10 -6 0 -5 -6 3
-16 11 -14 10 -18 -6 -31 -15 -12 -16 -14 -3 -10 9 3 19 1 21 -6 2 -7 3 -4 2
6 -4 26 21 20 45 -10 17 -23 19 -24 10 -5 -15 30 -6 40 15 18 18 -17 30 -22
21 -7 -10 15 26 21 73 12 3 -1 -3 -7 -14 -14 -17 -13 -16 -14 6 -11 13 1 26 3
28 3 2 1 -2 7 -8 15 -7 8 -8 16 -4 18 4 3 2 3 -4 2 -7 -2 -13 2 -13 7 0 6 9 9
20 6 12 -3 24 1 31 11 10 16 10 16 5 0 -3 -10 -1 -20 4 -23 6 -4 11 -1 11 4 3
26 4 30 11 37 7 6 6 -5 -4 -46 -2 -9 4 -15 17 -15 11 -1 19 -6 17 -13 -1 -7 2
-12 8 -12 6 0 10 4 10 9 0 5 7 12 16 15 12 5 15 2 10 -11 -6 -17 -5 -17 8 0 8
10 17 18 20 18 3 -1 5 2 4 7 -2 4 -6 6 -10 4 -5 -1 -8 2 -8 8 0 13 13 13 27
-1 8 -8 13 -8 18 1 5 8 11 6 20 -7 11 -14 10 -19 -2 -28 -14 -10 -14 -12 1
-12 9 0 16 4 16 9 0 4 7 8 16 8 8 0 13 -4 10 -8 -3 -5 1 -9 9 -9 20 0 8 16
-19 27 -13 4 -23 15 -23 23 0 12 8 10 32 -9 18 -13 36 -24 42 -24 6 0 10 -247
10 -682 1 -376 2 -686 2 -689 1 -3 39 -7 86 -7 78 -1 87 -4 113 -28 15 -15 21
-23 15 -20 -7 4 -13 2 -13 -3 0 -6 -5 -11 -10 -11 -6 0 -9 3 -9 8 4 21 -3 32
-18 32 -17 -1 -17 -1 0 -11 13 -7 15 -14 8 -23 -5 -6 -9 -21 -7 -31 2 -11 -2
-23 -8 -28 -6 -4 -1 -6 11 -4 12 2 26 7 30 12 5 4 2 5 -6 0 -10 -6 -12 -4 -6
5 5 8 4 11 -1 7 -6 -3 -11 4 -11 15 -2 20 -1 20 15 -3 9 -13 17 -28 17 -32 0
-5 8 -14 18 -21 9 -7 17 -17 17 -21 0 -4 -6 -2 -13 4 -8 6 -18 7 -22 3 -5 -4
-5 -1 0 7 6 10 4 12 -5 6 -8 -5 -11 -4 -7 3 5 6 -1 8 -15 4 -21 -5 -21 -5 3
-14 13 -5 26 -9 29 -9 13 -1 29 -23 23 -33 -3 -6 -2 -8 2 -3 5 4 18 -1 29 -10
12 -10 15 -11 9 -3 -15 16 -17 34 -4 25 5 -3 12 -1 16 4 3 6 -6 8 -22 6 -16
-2 -22 -2 -15 1 6 3 9 11 5 17 -5 9 -3 9 8 1 8 -5 30 -11 49 -12 23 -2 30 0
22 6 -10 7 -10 11 3 22 13 11 14 10 9 -4 -5 -12 0 -19 15 -23 11 -3 18 -9 15
-15 -3 -5 -12 -4 -20 3 -8 7 -14 7 -14 1 0 -14 28 -23 35 -12 4 6 11 10 17 10
7 0 6 -6 -2 -15 -7 -8 -8 -15 -4 -15 5 0 15 9 22 21 8 12 9 18 3 15 -17 -11
-21 11 -4 25 10 8 14 9 10 2 -4 -6 -2 -15 4 -18 5 -4 8 -13 5 -20 -4 -11 1
-11 25 -3 16 6 29 17 29 26 -1 15 -2 15 -11 0 -5 -10 -15 -18 -21 -18 -6 0 -5
7 3 18 13 15 12 16 -3 3 -12 -9 -18 -10 -18 -2 0 6 5 11 11 11 5 0 7 6 3 13
-6 9 -5 9 8 0 8 -7 18 -10 21 -6 4 3 -1 12 -11 20 -16 12 -16 13 2 7 16 -6 17
-4 8 12 -9 16 -7 20 9 21 10 1 29 9 41 19 15 10 17 14 6 11 -18 -6 -32 5 -21
17 11 10 12 37 2 30 -5 -3 -7 -9 -5 -13 3 -3 -4 -7 -15 -7 -10 0 -19 4 -19 8
0 4 7 8 15 8 17 0 20 16 5 25 -13 8 -13 25 1 25 5 0 7 -4 4 -10 -3 -6 1 -7 9
-4 18 7 21 30 6 39 -8 5 -8 11 -1 19 7 9 7 17 -2 26 -10 10 -9 12 5 7 10 -3
20 -2 23 4 4 5 3 9 -2 8 -21 -4 -29 3 -29 26 0 19 4 24 16 20 11 -4 11 -2 -2
9 -21 16 -23 27 -4 20 8 -3 17 0 22 7 4 8 3 10 -4 5 -7 -4 -22 0 -34 8 -12 9
-19 16 -15 16 4 0 3 9 -3 20 -6 11 -16 17 -22 14 -7 -4 -8 -2 -4 5 6 9 11 9
24 -1 11 -10 16 -10 19 -1 3 8 12 9 29 3 34 -13 30 -4 -6 14 -17 8 -28 10 -25
5 4 -5 1 -9 -4 -9 -6 0 -11 3 -12 8 0 4 -2 17 -5 28 -2 12 3 27 11 34 11 9 15
9 15 1 0 -6 -4 -11 -9 -11 -22 0 -6 -35 16 -36 13 -1 20 2 17 7 -3 5 -12 9
-20 9 -8 0 -12 5 -9 10 4 7 14 6 28 -1 21 -9 21 -9 3 5 -19 15 -13 42 7 29 6
-4 1 10 -10 30 -13 22 -18 39 -12 43 6 4 6 11 -2 20 -7 9 -8 18 -2 27 5 6 9
29 9 50 -1 20 3 37 8 37 5 0 -3 9 -18 21 -21 17 -24 24 -15 35 6 8 16 14 22
14 6 0 2 -7 -9 -16 -18 -14 -18 -15 4 -4 13 7 21 14 18 17 -3 4 0 13 6 22 10
13 10 14 -2 4 -22 -20 -32 -15 -19 9 9 16 9 23 0 26 -18 6 -12 22 7 16 16 -5
16 -5 -1 6 -13 8 -15 15 -7 30 14 26 13 33 -5 26 -20 -7 -33 23 -14 34 7 5 22
4 33 -1 20 -10 20 -9 2 5 -19 15 -13 42 7 29 6 -4 1 10 -10 30 -13 21 -18 39
-12 42 5 4 1 18 -11 35 -23 32 -25 40 -9 40 5 0 7 -4 4 -10 -3 -6 1 -7 9 -4
18 7 21 30 6 39 -8 5 -8 11 -1 19 7 9 7 17 -2 26 -10 10 -9 12 5 7 10 -3 20
-2 23 4 4 5 3 9 -2 8 -21 -4 -29 3 -29 26 0 19 4 24 16 20 11 -4 11 -2 -2 9
-24 18 -22 25 5 19 15 -3 11 1 -11 13 -18 9 -30 19 -28 22 10 9 -15 43 -26 36
-7 -4 -8 -2 -4 5 6 9 11 9 24 -1 11 -10 16 -10 19 -1 3 8 12 9 29 3 34 -13 30
-4 -6 14 -17 8 -28 10 -25 5 4 -5 2 -9 -3 -9 -6 0 -13 7 -16 16 -3 8 -2 12 4
9 5 -3 8 4 7 15 -1 11 -6 20 -11 20 -5 0 -1 6 10 14 19 15 19 15 -1 31 -20 16
-20 16 2 6 16 -8 22 -7 27 5 3 9 3 21 -1 27 -3 7 -2 9 2 4 5 -4 18 1 29 10 20
17 20 17 7 1 -19 -25 4 -23 29 2 11 11 20 16 20 11 0 -6 -5 -13 -10 -16 -8 -5
-7 -11 1 -21 6 -7 15 -12 19 -9 5 3 10 -3 12 -12 3 -15 5 -14 10 5 3 12 2 20
-3 16 -5 -3 -6 3 -3 13 6 15 4 15 -9 -2 -9 -11 -17 -15 -17 -9 0 6 6 17 14 23
11 10 17 8 25 -6 9 -15 12 -15 20 -4 7 10 13 11 27 1 17 -10 17 -11 1 -6 -11
4 -16 2 -12 -4 4 -6 3 -10 -2 -9 -19 3 -30 -2 -30 -14 0 -8 6 -14 13 -14 7 0
10 7 7 14 -3 8 -2 13 3 12 23 -4 35 3 43 23 l8 22 5 -22 c4 -15 2 -20 -5 -15
-7 3 -3 -3 8 -14 25 -26 28 -23 15 12 -8 22 -8 26 2 19 16 -11 38 -11 56 0 8
5 18 4 24 -2 6 -6 18 -8 27 -5 9 4 13 3 10 -1 -10 -11 -50 -16 -44 -5 4 5 2 9
-4 9 -5 0 -13 -4 -16 -10 -3 -5 -1 -10 4 -10 6 0 11 -4 11 -10 0 -5 -6 -7 -14
-4 -8 3 -16 1 -20 -4 -7 -11 34 -8 42 4 9 12 46 18 38 5 -4 -5 -2 -13 4 -16 6
-4 9 -1 8 6 -4 18 26 18 34 -1 6 -13 7 -12 7 2 1 9 -3 19 -9 23 -11 7 -2 35
12 35 6 0 4 -8 -3 -17 -13 -15 -12 -16 9 -11 21 6 32 -7 12 -14 -6 -2 -6 -8 0
-18 9 -13 10 -13 10 0 0 9 9 16 21 17 18 2 19 0 7 -15 -12 -16 -11 -16 7 0 26
21 36 23 47 6 8 -10 9 -10 5 2 -3 10 5 20 19 27 13 6 22 7 18 2 -3 -5 0 -9 7
-9 6 0 9 8 6 20 -3 12 -1 18 5 14 5 -3 7 -17 3 -31 -4 -16 -2 -22 5 -18 5 3
10 -1 10 -9 0 -9 5 -16 11 -16 5 0 7 5 3 12 -4 6 -8 22 -10 35 -2 19 0 22 11
13 8 -6 12 -17 9 -24 -3 -7 3 -19 13 -26 15 -12 16 -12 6 0 -10 10 -9 19 5 42
18 31 20 32 41 19 9 -6 10 -11 2 -15 -6 -4 -11 -1 -11 6 -1 8 -6 6 -15 -6 -20
-26 -19 -36 3 -35 10 0 12 3 4 6 -6 2 -10 9 -7 13 3 5 12 7 20 4 8 -4 13 -10
10 -14 -6 -10 22 -7 32 4 4 4 2 6 -6 4 -7 -2 -16 3 -18 10 -3 6 2 12 11 12 9
0 16 4 16 9 0 5 -7 8 -16 7 -9 0 -19 5 -21 12 -3 6 0 12 7 12 6 0 8 -5 5 -11
-5 -6 0 -6 12 1 20 13 29 50 12 50 -6 0 -7 5 -3 11 5 8 1 8 -14 0 -12 -6 -24
-16 -27 -21 -3 -6 -11 -10 -16 -10 -6 0 5 14 23 30 30 28 34 29 45 13 7 -9 13
-12 13 -7 0 6 -5 15 -12 22 -9 9 -9 12 3 12 12 0 12 1 -1 10 -8 5 -15 24 -17
42 -2 27 -1 29 7 13 7 -16 9 -16 9 -4 1 23 -25 44 -35 28 -4 -7 -3 -9 4 -6 6
5 8 0 5 -13 -8 -31 -21 -23 -17 11 2 18 0 28 -6 24 -6 -4 -9 -1 -8 7 2 7 -2
12 -9 11 -8 -2 -10 4 -6 14 4 11 8 13 11 5 2 -7 8 -10 12 -7 5 3 12 0 16 -6 5
-8 3 -9 -6 -4 -9 6 -11 4 -6 -4 5 -7 11 -10 14 -7 3 3 14 -2 24 -11 13 -12 22
-13 29 -6 8 8 6 11 -7 10 -14 -2 -19 4 -17 23 1 14 -1 19 -3 13 -3 -7 -10 -13
-15 -13 -6 0 -8 4 -5 8 3 5 0 9 -7 10 -7 0 -24 3 -39 6 -17 4 -32 1 -42 -9
-13 -14 -15 -13 -13 4 0 11 4 18 8 15 4 -2 11 1 15 7 4 7 3 9 -4 5 -6 -3 -13
-2 -17 4 -4 7 -14 5 -28 -5 -12 -8 -24 -15 -28 -15 -4 0 -7 39 -8 87 -1 47 -4
90 -6 94 -3 4 -401 7 -885 7 l-880 -1 -1 -103z m1819 -86 c-17 -26 -38 -35
-38 -17 0 7 3 9 7 6 3 -4 12 2 20 13 19 27 29 25 11 -2z m17 -46 c-3 -3 -11 0
-18 7 -9 10 -8 11 6 5 10 -3 15 -9 12 -12z m50 -12 c10 -11 16 -20 13 -20 -3
0 -13 9 -23 20 -10 11 -16 20 -13 20 3 0 13 -9 23 -20z m12 -57 c-4 -3 -1 -13
6 -22 11 -14 10 -14 -5 -2 -16 12 -16 31 -1 31 4 0 3 -3 0 -7z m-1683 -31 c3
-5 -1 -9 -9 -9 -8 0 -12 4 -9 9 3 4 7 8 9 8 2 0 6 -4 9 -8z m1730 -1 c7 -10
-18 -34 -27 -25 -7 8 3 34 13 34 5 0 11 -4 14 -9z m-1736 -35 c-10 -7 -15 -15
-12 -18 3 -4 1 -8 -3 -11 -5 -3 -9 4 -9 17 0 15 6 22 21 23 18 2 19 1 3 -11z
m1735 -53 c-4 -11 -8 -13 -11 -5 -2 7 -9 9 -15 5 -7 -4 -6 1 2 10 16 20 33 13
24 -10z m-1716 0 c-2 -2 -14 -6 -27 -8 -18 -3 -20 -2 -10 10 6 8 18 11 26 8 8
-3 13 -7 11 -10z m1088 8 c3 -5 2 -12 -3 -15 -5 -3 -9 1 -9 9 0 17 3 19 12 6z
m522 -6 c0 -8 -4 -12 -9 -9 -5 3 -6 10 -3 15 9 13 12 11 12 -6z m-217 -5 c0
-5 -5 -10 -11 -10 -5 0 -7 5 -4 10 3 6 8 10 11 10 2 0 4 -4 4 -10z m-1106 -29
c-2 -3 -12 3 -22 13 -16 17 -16 18 5 5 12 -7 20 -15 17 -18z m863 4 c0 -8 -4
-12 -9 -9 -4 3 -8 9 -8 15 0 5 4 9 8 9 5 0 9 -7 9 -15z m44 2 c-6 -8 -7 -18
-3 -22 4 -5 1 -5 -6 -1 -10 6 -10 11 -1 22 6 8 14 14 16 14 3 0 0 -6 -6 -13z
m99 3 c0 -5 -5 -10 -11 -10 -5 0 -7 5 -4 10 3 6 8 10 11 10 2 0 4 -4 4 -10z
m257 -5 c0 -8 -4 -12 -9 -9 -5 3 -6 10 -3 15 9 13 12 11 12 -6z m-1102 -4 c3
-5 2 -12 -3 -15 -5 -3 -9 1 -9 9 0 17 3 19 12 6z m-350 -19 c-3 -3 -11 0 -18
7 -9 10 -8 11 6 5 10 -3 15 -9 12 -12z m890 8 c3 -5 1 -10 -4 -10 -6 0 -11 5
-11 10 0 6 2 10 4 10 3 0 8 -4 11 -10z m265 0 c0 -5 -2 -10 -4 -10 -3 0 -8 5
-11 10 -3 6 -1 10 4 10 6 0 11 -4 11 -10z m91 -8 c-7 -2 -18 1 -23 6 -8 8 -4
9 13 5 13 -4 18 -8 10 -11z m104 8 c-3 -5 -12 -10 -18 -10 -7 0 -6 4 3 10 19
12 23 12 15 0z m42 -4 c-8 -21 4 -28 18 -9 9 13 14 13 20 3 5 -8 4 -11 -3 -6
-5 3 -12 1 -14 -6 -3 -7 -18 -13 -35 -13 -21 -1 -29 3 -26 12 3 7 9 10 14 7 5
-3 12 2 15 10 3 9 8 16 11 16 3 0 3 -6 0 -14z m-1340 -13 c0 -10 -4 -10 -16
-1 -9 7 -18 13 -20 15 -2 1 5 1 16 0 11 0 20 -7 20 -14z m329 -8 c1 -8 -1 -15
-6 -15 -10 0 -20 26 -13 34 8 8 16 -1 19 -19z m896 7 c3 -11 0 -19 -7 -19 -7
0 -10 8 -7 19 2 10 6 18 7 18 1 0 5 -8 7 -18z m-1297 -2 c3 -5 13 -7 23 -4 14
5 14 4 2 -4 -10 -8 -18 -8 -27 -1 -7 6 -17 8 -23 4 -5 -3 -10 -1 -10 4 0 14
27 14 35 1z m249 -7 c4 -10 4 -14 0 -11 -4 4 -15 3 -25 -2 -12 -7 -20 -7 -24
0 -4 6 -11 8 -16 5 -5 -4 -9 -1 -9 5 0 7 7 10 15 7 8 -4 17 -2 20 3 10 16 32
11 39 -7z m663 -8 c0 -8 -4 -12 -9 -9 -5 3 -6 10 -3 15 9 13 12 11 12 -6z
m-22 -45 c3 -5 1 -10 -4 -10 -6 0 -11 5 -11 10 0 6 2 10 4 10 3 0 8 -4 11 -10z
m21 -182 c0 -10 -1 -18 -3 -18 -1 0 -7 8 -12 18 -7 13 -6 19 2 19 7 0 13 -9
13 -19z m1 -44 c0 -7 -4 -11 -9 -8 -4 3 -8 0 -8 -5 0 -6 6 -11 13 -11 6 0 4
-5 -6 -11 -10 -6 -21 -8 -24 -5 -4 3 -2 6 3 6 6 0 10 12 9 28 0 21 -5 26 -20
24 -16 -2 -17 -1 -6 7 17 11 48 -5 48 -25z m7 -65 c-3 -5 -10 -7 -15 -4 -5 4
-9 1 -9 -4 0 -6 4 -11 9 -11 5 0 11 -7 14 -14 4 -10 1 -13 -9 -9 -7 3 -14 9
-14 15 0 5 -4 7 -8 4 -4 -2 -8 4 -8 14 0 10 4 17 7 14 4 -2 10 0 14 6 4 6 11
8 16 4 5 -3 7 -10 3 -15z m-24 -89 c0 -5 -4 -10 -10 -10 -5 0 -10 5 -10 10 0
6 5 10 10 10 6 0 10 -4 10 -10z m24 -31 c-3 -5 -10 -7 -15 -4 -16 10 -10 -4
11 -25 24 -24 24 -29 5 -55 -15 -19 -16 -18 -48 15 l-32 35 31 -28 c28 -25 32
-26 44 -12 11 13 10 14 -4 9 -9 -3 -16 -1 -16 5 0 6 5 11 10 11 6 0 10 5 10
11 0 5 -4 7 -10 4 -5 -3 -10 -1 -10 5 0 6 -4 9 -8 6 -4 -2 -8 4 -8 14 0 10 4
17 7 14 4 -2 10 0 14 6 4 6 11 8 16 4 5 -3 7 -10 3 -15z m-34 -102 c0 -2 -10
-12 -22 -23 l-23 -19 19 23 c18 21 26 27 26 19z m29 -52 c6 3 9 0 6 -7 -7 -18
-45 -41 -45 -28 0 5 5 10 11 10 6 0 9 6 6 13 -2 6 -10 11 -16 9 -7 -1 -10 2
-6 8 5 8 11 8 20 0 8 -7 19 -9 24 -5z m-8 -49 c-9 -11 -8 -15 4 -20 12 -4 13
-10 6 -25 -6 -10 -8 -20 -6 -23 2 -2 -4 -9 -15 -16 -12 -7 -21 -8 -25 -2 -4 6
-1 9 7 8 7 -2 13 4 13 12 0 9 -8 14 -20 12 -16 -2 -17 -1 -5 7 9 7 19 6 27 -1
15 -12 17 0 3 22 -8 13 3 40 17 40 3 0 0 -6 -6 -14z m14 -181 c0 -37 -5 -51
-20 -61 -19 -13 -21 -12 -21 10 0 14 4 22 8 20 5 -3 6 -10 3 -15 -4 -5 -2 -9
3 -9 17 0 22 13 9 28 -10 12 -9 16 2 20 10 3 7 8 -9 17 l-23 13 21 6 c12 4 20
12 16 17 -4 7 -10 6 -18 0 -8 -7 -12 -4 -12 9 0 17 3 18 21 6 15 -10 20 -24
20 -61z m-74 42 c-10 -9 -11 -8 -5 6 3 10 9 15 12 12 3 -3 0 -11 -7 -18z m39
-41 c0 -2 -8 -10 -17 -17 -16 -13 -17 -12 -4 4 13 16 21 21 21 13z m34 -85 c3
-5 -4 -16 -17 -24 -21 -13 -23 -13 -23 3 0 12 6 16 21 13 16 -4 17 -3 5 6 -9
7 -10 11 -3 11 6 0 14 -4 17 -9z m-66 -46 c-3 -3 -9 2 -12 12 -6 14 -5 15 5 6
7 -7 10 -15 7 -18z m72 -5 c14 -26 4 -45 -15 -30 -7 6 -15 7 -17 3 -3 -4 -3
-2 -2 5 2 6 -2 12 -8 12 -7 0 -3 7 8 15 24 18 21 19 34 -5z m-53 -52 c-3 -8
-6 -5 -6 6 -1 11 2 17 5 13 3 -3 4 -12 1 -19z m39 -160 c0 -10 -1 -18 -3 -18
-1 0 -7 8 -12 18 -7 13 -6 19 2 19 7 0 13 -9 13 -19z m1 -44 c0 -7 -4 -11 -9
-8 -4 3 -8 0 -8 -5 0 -6 6 -11 13 -11 6 0 4 -5 -6 -11 -10 -6 -21 -8 -24 -5
-4 3 -2 6 3 6 6 0 10 12 9 28 0 21 -5 26 -20 24 -16 -2 -17 -1 -6 7 17 11 48
-5 48 -25z m7 -65 c-3 -5 -10 -7 -15 -4 -5 4 -9 1 -9 -4 0 -6 4 -11 9 -11 5 0
11 -7 14 -14 4 -10 1 -13 -9 -9 -7 3 -14 9 -14 15 0 5 -4 7 -8 4 -4 -2 -8 4
-8 14 0 10 4 17 7 14 4 -2 10 0 14 6 4 6 11 8 16 4 5 -3 7 -10 3 -15z m-30
-75 c3 -8 2 -12 -4 -9 -6 3 -10 10 -10 16 0 14 7 11 14 -7z m-63 -21 c13 -16
12 -17 -3 -4 -10 7 -18 15 -18 17 0 8 8 3 21 -13z m-191 -13 c0 -5 -2 -10 -4
-10 -3 0 -8 5 -11 10 -3 6 -1 10 4 10 6 0 11 -4 11 -10z m277 -17 c-4 -3 -1
-13 6 -22 11 -14 10 -14 -5 -2 -14 11 -18 11 -18 1 0 -8 -3 -10 -6 -7 -7 6 13
37 24 37 3 0 2 -3 -1 -7z m-57 -17 c0 -3 -4 -8 -10 -11 -5 -3 -10 -1 -10 4 0
6 5 11 10 11 6 0 10 -2 10 -4z m-210 -24 c0 -5 -7 -9 -15 -9 -8 0 -12 4 -9 9
3 4 9 8 15 8 5 0 9 -4 9 -8z m21 -35 c-10 -9 -11 -8 -5 6 3 10 9 15 12 12 3
-3 0 -11 -7 -18z m194 13 c-3 -5 -12 -10 -18 -10 -7 0 -6 4 3 10 19 12 23 12
15 0z m-218 -22 c-3 -8 -6 -5 -6 6 -1 11 2 17 5 13 3 -3 4 -12 1 -19z m87 4
c3 -5 -1 -9 -9 -9 -8 0 -12 4 -9 9 3 4 7 8 9 8 2 0 6 -4 9 -8z m75 -6 c9 -11
9 -16 0 -22 -7 -4 -9 -3 -5 4 3 6 -2 15 -11 21 -10 6 -13 11 -7 11 6 0 17 -6
23 -14z m-93 -24 c-10 -2 -22 0 -28 6 -6 6 0 7 19 4 21 -5 23 -7 9 -10z"/>
<path d="M7465 5180 c-3 -6 1 -7 9 -4 18 7 21 14 7 14 -6 0 -13 -4 -16 -10z"/>
<path d="M8155 4200 c-3 -5 -1 -10 4 -10 6 0 11 5 11 10 0 6 -2 10 -4 10 -3 0
-8 -4 -11 -10z"/>
<path d="M8820 5510 c0 -6 7 -10 15 -10 8 0 15 2 15 4 0 2 -7 6 -15 10 -8 3
-15 1 -15 -4z"/>
<path d="M2123 5448 c-21 -27 -20 -33 1 -33 13 0 23 5 23 12 0 6 -7 9 -16 6
-11 -3 -10 0 3 11 11 9 15 16 9 16 -6 0 -15 -6 -20 -12z"/>
<path d="M6880 5370 c-8 -5 -12 -12 -9 -15 4 -3 12 1 19 10 14 17 11 19 -10 5z"/>
<path d="M4350 5350 c0 -5 5 -10 11 -10 5 0 7 5 4 10 -3 6 -8 10 -11 10 -2 0
-4 -4 -4 -10z"/>
<path d="M6859 5318 c-6 -21 -5 -37 2 -32 5 3 7 9 4 14 -3 5 3 11 12 13 17 4
17 5 1 6 -10 0 -18 0 -19 -1z"/>
<path d="M7101 5304 c0 -11 3 -14 6 -6 3 7 2 16 -1 19 -3 4 -6 -2 -5 -13z"/>
<path d="M4421 5241 c-7 -5 -9 -11 -5 -14 5 -3 15 1 22 9 14 16 5 18 -17 5z"/>
<path d="M7101 5234 c0 -11 3 -14 6 -6 3 7 2 16 -1 19 -3 4 -6 -2 -5 -13z"/>
<path d="M2173 5225 c0 -8 4 -12 9 -9 5 3 6 10 3 15 -9 13 -12 11 -12 -6z"/>
<path d="M8915 5229 c-4 -6 -5 -12 -2 -15 2 -3 7 2 10 11 7 17 1 20 -8 4z"/>
<path d="M4435 5190 c3 -5 8 -10 11 -10 2 0 4 5 4 10 0 6 -5 10 -11 10 -5 0
-7 -4 -4 -10z"/>
<path d="M4495 5190 c-3 -5 -1 -10 4 -10 6 0 11 5 11 10 0 6 -2 10 -4 10 -3 0
-8 -4 -11 -10z"/>
<path d="M5466 5181 c-4 -6 -13 -8 -21 -4 -8 3 -15 0 -15 -5 0 -6 14 -9 30 -7
22 3 29 1 23 -8 -5 -9 -3 -9 8 0 12 10 18 10 29 0 12 -10 12 -9 1 6 -8 9 -16
15 -19 12 -3 -3 -11 0 -18 6 -8 6 -14 7 -18 0z"/>
<path d="M6230 5176 c7 -7 13 -7 20 0 6 6 3 10 -10 10 -13 0 -16 -4 -10 -10z"/>
<path d="M6391 5169 c12 -24 21 -25 12 -1 -6 15 -5 16 13 2 10 -8 22 -19 26
-25 5 -7 8 -7 8 0 -1 19 -25 40 -47 41 -19 1 -21 -2 -12 -17z"/>
<path d="M7376 5182 c-3 -4 4 -16 15 -25 22 -19 25 -10 5 16 -8 10 -17 14 -20
9z"/>
<path d="M6110 5169 c0 -5 5 -7 10 -4 6 3 10 8 10 11 0 2 -4 4 -10 4 -5 0 -10
-5 -10 -11z"/>
<path d="M6316 5172 c-3 -6 1 -13 10 -16 8 -3 12 -11 8 -17 -4 -8 -3 -9 5 -5
9 6 9 12 -1 24 -7 10 -13 18 -14 20 -1 2 -5 -1 -8 -6z"/>
<path d="M7542 5155 c-6 -14 -10 -25 -8 -25 2 0 11 11 20 25 9 14 13 25 8 25
-5 0 -14 -11 -20 -25z"/>
<path d="M8204 5173 c4 -7 3 -13 -2 -13 -9 0 -34 -45 -37 -65 -2 -13 15 -35
26 -35 5 0 9 8 9 18 0 13 -2 14 -9 3 -5 -8 -11 -9 -15 -3 -3 6 -2 13 4 17 6 4
8 11 5 16 -4 5 2 9 12 9 15 0 16 2 3 10 -8 5 -12 10 -7 11 4 1 10 2 15 3 4 1
13 5 20 9 6 5 16 5 22 2 6 -3 7 1 4 9 -7 18 -24 21 -24 5 0 -8 -6 -7 -17 2
-11 10 -14 10 -9 2z"/>
<path d="M8430 5169 c0 -5 5 -7 10 -4 6 3 10 8 10 11 0 2 -4 4 -10 4 -5 0 -10
-5 -10 -11z"/>
<path d="M8716 5172 c-3 -6 1 -13 10 -16 8 -3 12 -11 8 -17 -4 -8 -3 -9 5 -5
9 6 9 12 -1 24 -7 10 -13 18 -14 20 -1 2 -5 -1 -8 -6z"/>
<path d="M5920 5163 c8 -3 22 -11 30 -17 13 -10 13 -9 1 7 -7 9 -21 17 -30 16
-13 0 -14 -1 -1 -6z"/>
<path d="M6130 5150 c0 -5 5 -10 10 -10 6 0 10 5 10 10 0 6 -4 10 -10 10 -5 0
-10 -4 -10 -10z"/>
<path d="M6238 5153 c7 -3 16 -2 19 1 4 3 -2 6 -13 5 -11 0 -14 -3 -6 -6z"/>
<path d="M6610 5150 c0 -5 5 -10 10 -10 6 0 10 5 10 10 0 6 -4 10 -10 10 -5 0
-10 -4 -10 -10z"/>
<path d="M8360 5149 c0 -5 5 -7 10 -4 6 3 10 8 10 11 0 2 -4 4 -10 4 -5 0 -10
-5 -10 -11z"/>
<path d="M5339 5145 c-1 -3 -2 -9 -3 -15 0 -5 -10 -16 -21 -24 -11 -9 -17 -16
-13 -16 4 0 0 -9 -9 -19 -9 -11 -21 -17 -26 -14 -6 3 -7 1 -3 -6 6 -8 12 -9
20 -2 7 6 17 7 21 3 5 -4 5 -2 1 5 -3 6 -2 14 4 18 5 3 10 1 10 -5 0 -6 5 -8
11 -5 6 5 4 12 -8 22 -17 14 -17 14 2 10 16 -3 20 2 20 25 1 25 -3 37 -6 23z"/>
<path d="M5430 5139 c0 -5 5 -7 10 -4 6 3 10 8 10 11 0 2 -4 4 -10 4 -5 0 -10
-5 -10 -11z"/>
<path d="M5516 5132 c-3 -5 1 -9 9 -9 8 0 12 4 9 9 -3 4 -7 8 -9 8 -2 0 -6 -4
-9 -8z"/>
<path d="M5599 5123 c-13 -16 -12 -17 4 -4 16 13 21 21 13 21 -2 0 -10 -8 -17
-17z"/>
<path d="M5675 5130 c-3 -5 -1 -10 4 -10 6 0 11 5 11 10 0 6 -2 10 -4 10 -3 0
-8 -4 -11 -10z"/>
<path d="M8353 5115 c0 -8 4 -12 9 -9 5 3 6 10 3 15 -9 13 -12 11 -12 -6z"/>
<path d="M8596 5117 c3 -10 9 -15 12 -12 3 3 0 11 -7 18 -10 9 -11 8 -5 -6z"/>
<path d="M4547 5076 c-14 -11 -15 -15 -4 -24 9 -8 17 -8 27 0 12 8 12 9 -2 4
-21 -6 -23 5 -6 22 16 16 7 15 -15 -2z"/>
<path d="M2121 5061 c-18 -14 -21 -20 -11 -26 9 -5 11 -4 6 3 -7 11 6 17 27
13 5 -1 6 3 3 8 -4 5 0 12 6 14 7 3 9 6 3 6 -5 0 -21 -8 -34 -18z"/>
<path d="M5290 5030 c0 -5 5 -10 10 -10 6 0 10 5 10 10 0 6 -4 10 -10 10 -5 0
-10 -4 -10 -10z"/>
<path d="M8166 5011 c-7 -11 22 -36 31 -27 3 3 1 6 -5 6 -6 0 -9 7 -6 15 6 16
-11 21 -20 6z"/>
<path d="M2106 4997 c3 -10 9 -15 12 -12 3 3 0 11 -7 18 -10 9 -11 8 -5 -6z"/>
<path d="M4594 4993 c3 -4 1 -12 -5 -19 -7 -9 -6 -14 3 -20 7 -4 10 -4 6 0 -9
11 14 35 27 28 6 -3 6 -1 2 3 -4 5 -15 10 -23 11 -9 1 -13 0 -10 -3z"/>
<path d="M4598 4942 c-16 -17 -16 -18 2 -30 12 -7 21 -8 25 -2 3 6 -1 10 -10
10 -9 0 -14 4 -10 10 3 5 11 8 18 6 7 -1 9 -1 4 1 -4 3 -5 9 -1 14 9 15 -10 9
-28 -9z"/>
<path d="M2122 4884 c-7 -8 -8 -14 -3 -14 10 0 25 19 20 25 -2 1 -10 -3 -17
-11z"/>
<path d="M4650 4896 c0 -2 7 -7 16 -10 8 -3 12 -2 9 4 -6 10 -25 14 -25 6z"/>
<path d="M2150 4868 c0 -4 4 -8 9 -8 6 0 12 4 15 8 3 5 -1 9 -9 9 -8 0 -15 -4
-15 -9z"/>
<path d="M2110 4832 c0 -4 9 -13 20 -20 12 -7 20 -8 20 -2 0 5 -5 10 -11 10
-5 0 -7 5 -4 10 3 6 -1 10 -9 10 -9 0 -16 -3 -16 -8z"/>
<path d="M4634 4818 c1 -13 6 -22 9 -20 4 1 13 2 20 2 6 0 4 5 -6 11 -9 6 -15
14 -12 20 4 5 1 9 -4 9 -6 0 -9 -10 -7 -22z"/>
<path d="M8196 4832 c-3 -5 1 -9 9 -9 8 0 12 4 9 9 -3 4 -7 8 -9 8 -2 0 -6 -4
-9 -8z"/>
<path d="M4675 4790 c-16 -7 -17 -9 -3 -9 9 -1 20 4 23 9 7 11 7 11 -20 0z"/>
<path d="M2126 4775 c-11 -8 -14 -15 -7 -15 7 0 9 -5 5 -12 -13 -20 -11 -67 1
-72 12 -4 13 40 1 51 -3 4 -1 12 5 20 6 7 8 13 4 13 -4 0 -2 7 5 15 16 19 11
19 -14 0z"/>
<path d="M4695 4759 c-4 -6 -5 -12 -2 -15 2 -3 7 2 10 11 7 17 1 20 -8 4z"/>
<path d="M8188 4763 c7 -3 16 -2 19 1 4 3 -2 6 -13 5 -11 0 -14 -3 -6 -6z"/>
<path d="M2137 4603 c-10 -9 -9 -23 1 -23 5 0 9 7 9 15 0 17 -1 18 -10 8z"/>
<path d="M6788 4603 c7 -3 16 -2 19 1 4 3 -2 6 -13 5 -11 0 -14 -3 -6 -6z"/>
<path d="M4710 4591 c0 -6 4 -13 10 -16 6 -3 7 1 4 9 -7 18 -14 21 -14 7z"/>
<path d="M6770 4575 c24 -25 36 -33 25 -16 -3 5 4 12 15 16 11 3 20 11 20 18
0 8 -3 8 -12 -1 -15 -15 -48 -16 -48 -2 0 6 -5 10 -12 10 -6 0 -1 -11 12 -25z"/>
<path d="M8160 4590 c0 -5 7 -7 15 -4 8 4 15 8 15 10 0 2 -7 4 -15 4 -8 0 -15
-4 -15 -10z"/>
<path d="M2114 4559 c-9 -16 2 -22 21 -11 15 8 16 10 1 15 -8 3 -18 2 -22 -4z"/>
<path d="M6856 4543 c-6 -14 -5 -15 5 -6 7 7 10 15 7 18 -3 3 -9 -2 -12 -12z"/>
<path d="M2117 4523 c-4 -3 -7 -11 -7 -17 0 -6 5 -5 12 2 6 6 9 14 7 17 -3 3
-9 2 -12 -2z"/>
<path d="M5212 4487 c7 -17 14 -23 18 -16 8 12 44 -4 68 -31 11 -13 12 -12 3
6 -6 12 -8 24 -5 27 3 3 -2 4 -13 3 -10 -2 -24 1 -31 7 -7 5 -15 7 -19 4 -3
-4 -12 1 -20 11 -11 15 -12 13 -1 -11z"/>
<path d="M5235 4450 c-3 -5 -1 -10 4 -10 6 0 11 5 11 10 0 6 -2 10 -4 10 -3 0
-8 -4 -11 -10z"/>
<path d="M5935 4449 c-4 -5 -12 -8 -19 -6 -6 3 -11 -6 -11 -19 l0 -24 18 23
c14 16 17 17 13 5 -3 -10 -2 -18 3 -18 12 0 21 39 11 45 -5 3 -12 0 -15 -6z"/>
<path d="M2116 4441 c-3 -5 1 -14 8 -20 12 -10 13 -8 9 8 -6 23 -9 25 -17 12z"/>
<path d="M5481 4442 c-6 -2 -11 -9 -11 -14 0 -6 3 -8 6 -5 11 10 45 -13 38
-25 -4 -7 -2 -8 5 -4 9 6 9 11 0 23 -10 12 -10 16 2 23 10 7 9 9 -7 8 -12 -1
-26 -4 -33 -6z"/>
<path d="M5643 4442 c-8 -5 -2 -13 18 -24 l29 -17 -16 25 c-9 13 -17 24 -18
24 0 0 -6 -4 -13 -8z"/>
<path d="M6254 4438 c-3 -5 -9 -6 -13 -4 -4 3 -8 -1 -8 -9 0 -20 7 -19 24 3
13 16 14 15 10 -6 -3 -12 -1 -20 4 -16 5 3 9 12 9 20 0 8 5 12 10 9 6 -4 8
-11 5 -16 -4 -5 -1 -9 4 -9 6 0 11 8 11 18 1 15 2 15 15 -2 8 -11 15 -14 15
-8 0 7 0 15 0 19 0 10 -80 11 -86 1z"/>
<path d="M6365 4430 c-10 -11 -15 -23 -12 -26 4 -4 9 1 13 10 3 9 10 13 15 10
5 -3 7 -9 5 -13 -3 -4 1 -8 9 -8 12 0 12 3 2 15 -6 8 -10 17 -9 19 2 3 2 7 -1
9 -2 2 -12 -5 -22 -16z"/>
<path d="M5688 4428 c5 -5 16 -10 23 -11 8 -2 21 -7 29 -12 13 -8 13 -7 1 8
-7 9 -17 14 -22 11 -5 -3 -9 -1 -9 4 0 5 -7 9 -15 9 -9 0 -12 -4 -7 -9z"/>
<path d="M6410 4431 c0 -6 5 -11 11 -11 5 0 7 -6 3 -12 -5 -9 -2 -9 9 1 9 7
17 16 17 19 0 3 -3 2 -7 -1 -3 -4 -12 -2 -20 4 -9 9 -13 8 -13 0z"/>
<path d="M5390 4411 c0 -6 4 -13 10 -16 6 -3 7 1 4 9 -7 18 -14 21 -14 7z"/>
<path d="M5436 4412 c-2 -4 4 -8 14 -8 10 0 16 4 14 8 -3 4 -9 8 -14 8 -5 0
-11 -4 -14 -8z"/>
<path d="M5615 4411 c-3 -5 0 -13 6 -17 8 -5 9 -3 4 6 -6 10 -4 12 9 7 10 -4
15 -3 11 3 -8 13 -22 13 -30 1z"/>
<path d="M5810 4410 c0 -5 5 -10 11 -10 5 0 7 5 4 10 -3 6 -8 10 -11 10 -2 0
-4 -4 -4 -10z"/>
<path d="M6170 4410 c0 -5 5 -10 11 -10 5 0 7 5 4 10 -3 6 -8 10 -11 10 -2 0
-4 -4 -4 -10z"/>
<path d="M6905 4411 c-3 -5 -1 -13 5 -16 7 -5 8 -11 1 -19 -11 -12 -6 -24 20
-43 13 -10 16 -10 16 2 0 8 -3 13 -6 11 -3 -2 -12 2 -19 10 -7 8 -8 14 -2 14
5 0 10 7 10 15 0 8 -5 15 -11 15 -5 0 -7 5 -4 10 3 6 4 10 1 10 -3 0 -7 -4
-11 -9z"/>
<path d="M6935 4410 c3 -5 8 -10 11 -10 2 0 4 5 4 10 0 6 -5 10 -11 10 -5 0
-7 -4 -4 -10z"/>
<path d="M8188 4403 c7 -3 16 -2 19 1 4 3 -2 6 -13 5 -11 0 -14 -3 -6 -6z"/>
<path d="M2109 4398 c-7 -25 -5 -36 7 -31 16 6 19 33 4 33 -5 0 -10 -1 -11 -2z"/>
<path d="M4666 4315 c-11 -8 -15 -15 -9 -15 6 0 16 7 23 15 16 19 11 19 -14 0z"/>
<path d="M6944 4304 c-18 -14 -18 -15 4 -4 12 6 22 13 22 15 0 8 -5 6 -26 -11z"/>
<path d="M6952 4286 c-12 -6 -20 -16 -18 -22 3 -7 2 -15 -2 -18 -3 -4 -7 -14
-8 -22 -1 -9 0 -13 3 -10 3 3 12 -2 20 -10 9 -8 18 -12 22 -9 3 4 -2 11 -12
16 -9 6 -17 15 -17 20 0 6 4 8 9 4 5 -3 13 0 17 6 4 7 3 9 -3 6 -6 -4 -14 0
-17 9 -5 12 -2 15 11 10 10 -4 14 -4 10 0 -4 4 -2 13 4 21 13 15 12 15 -19 -1z"/>
<path d="M4635 4280 c3 -5 8 -10 11 -10 2 0 4 5 4 10 0 6 -5 10 -11 10 -5 0
-7 -4 -4 -10z"/>
<path d="M8190 4270 c0 -5 5 -10 11 -10 5 0 7 5 4 10 -3 6 -8 10 -11 10 -2 0
-4 -4 -4 -10z"/>
<path d="M4639 4228 c-5 -9 -5 -48 -1 -43 6 6 11 45 5 45 -2 0 -4 -1 -4 -2z"/>
<path d="M2071 4172 c-15 -28 -14 -29 12 -34 15 -3 24 0 24 9 0 9 -7 11 -21 7
-19 -6 -19 -5 -7 10 8 9 11 19 8 22 -3 3 -10 -3 -16 -14z"/>
<path d="M6946 4165 c-15 -11 -16 -15 -5 -19 22 -7 49 -4 43 5 -2 5 -12 5 -22
2 -15 -6 -15 -5 -3 10 16 21 12 21 -13 2z"/>
<path d="M4583 4122 c-9 -5 -6 -12 10 -21 19 -13 21 -12 10 1 -7 8 -10 18 -6
21 9 9 1 8 -14 -1z"/>
<path d="M6920 4054 c0 -1 6 -7 14 -13 10 -9 15 -8 19 2 3 8 -3 13 -14 13 -11
0 -19 -1 -19 -2z"/>
<path d="M8166 4051 c-7 -11 22 -36 31 -27 3 3 1 6 -5 6 -6 0 -9 7 -6 15 6 16
-11 21 -20 6z"/>
<path d="M2547 3949 c7 -7 15 -10 18 -7 3 3 -2 9 -12 12 -14 6 -15 5 -6 -5z"/>
<path d="M6930 3948 c0 -4 4 -8 9 -8 6 0 12 4 15 8 3 5 -1 9 -9 9 -8 0 -15 -4
-15 -9z"/>
<path d="M2019 3938 c-5 -18 -6 -38 -1 -34 7 8 12 36 6 36 -2 0 -4 -1 -5 -2z"/>
<path d="M2570 3926 c0 -2 7 -7 16 -10 8 -3 12 -2 9 4 -6 10 -25 14 -25 6z"/>
<path d="M8195 3870 c-3 -5 -1 -10 4 -10 6 0 11 5 11 10 0 6 -2 10 -4 10 -3 0
-8 -4 -11 -10z"/>
<path d="M2626 3852 c-3 -5 1 -9 9 -9 8 0 12 4 9 9 -3 4 -7 8 -9 8 -2 0 -6 -4
-9 -8z"/>
<path d="M4393 3843 c-3 -7 -10 -10 -16 -6 -6 4 -7 1 -2 -7 6 -10 11 -10 20 3
7 9 14 14 17 11 4 -3 8 -1 12 4 3 5 -2 9 -10 9 -9 0 -18 -6 -21 -14z"/>
<path d="M4332 3831 c2 -20 -4 -31 -14 -28 -7 1 -12 -4 -10 -10 1 -7 -3 -13
-9 -13 -5 0 -7 -5 -3 -11 5 -8 10 -6 16 5 5 9 14 14 19 10 5 -3 8 -2 7 3 -1 4
3 17 9 29 10 17 9 21 -2 21 -8 0 -14 -3 -13 -6z"/>
<path d="M6843 3817 c-10 -11 -13 -17 -6 -14 6 4 14 1 17 -5 3 -7 4 -4 3 7 -1
14 3 19 16 17 9 -2 17 1 17 6 0 16 -30 9 -47 -11z"/>
<path d="M8188 3803 c7 -3 16 -2 19 1 4 3 -2 6 -13 5 -11 0 -14 -3 -6 -6z"/>
<path d="M2676 3788 c3 -5 10 -6 15 -3 13 9 11 12 -6 12 -8 0 -12 -4 -9 -9z"/>
<path d="M2775 3767 c-14 -11 -15 -16 -5 -22 9 -6 11 -4 5 5 -5 8 -3 11 6 8 8
-3 13 -12 11 -19 -3 -12 -1 -12 10 0 10 11 10 14 0 18 -6 3 -10 9 -6 14 7 13
1 11 -21 -4z"/>
<path d="M469 3753 c-8 -9 -9 -14 -2 -10 6 4 14 3 18 -3 3 -5 1 -10 -4 -10 -6
0 -11 -5 -11 -11 0 -8 4 -8 14 0 14 11 16 35 4 46 -3 3 -11 -2 -19 -12z"/>
<path d="M2730 3749 c0 -5 5 -7 10 -4 6 3 10 8 10 11 0 2 -4 4 -10 4 -5 0 -10
-5 -10 -11z"/>
<path d="M4170 3720 c-14 -11 -31 -25 -37 -30 -7 -6 -13 -8 -13 -4 0 3 -7 1
-15 -6 -11 -9 -15 -9 -15 -1 0 7 -4 9 -10 6 -6 -4 -5 -11 2 -19 11 -11 15 -10
26 3 12 14 13 14 8 -4 l-6 -20 16 20 c8 11 23 19 32 17 15 -2 15 -1 2 7 -13 9
-12 11 3 11 10 0 20 7 23 15 4 8 10 12 16 9 5 -3 5 -11 -2 -19 -8 -10 -8 -15
2 -21 7 -4 10 -3 5 1 -4 5 3 20 15 34 13 14 15 19 6 12 -12 -9 -18 -10 -18 -2
0 16 -11 13 -40 -9z"/>
<path d="M4950 3729 c0 -5 -6 -7 -12 -3 -10 5 -10 4 -1 -6 20 -21 42 -20 40 1
-1 20 -27 27 -27 8z"/>
<path d="M7810 3729 c0 -5 5 -7 10 -4 6 3 10 8 10 11 0 2 -4 4 -10 4 -5 0 -10
-5 -10 -11z"/>
<path d="M2810 3721 c0 -7 -5 -9 -12 -5 -7 5 -8 3 -3 -5 5 -9 10 -10 18 -2 6
6 8 14 4 18 -4 3 -7 1 -7 -6z"/>
<path d="M6756 3705 c-11 -8 -15 -15 -9 -15 6 0 16 7 23 15 16 19 11 19 -14 0z"/>
<path d="M473 3688 c2 -7 0 -22 -6 -33 -7 -15 -7 -17 2 -9 15 14 22 54 10 54
-6 0 -9 -6 -6 -12z"/>
<path d="M8150 3688 c0 -11 12 -10 30 2 12 7 10 9 -8 7 -12 0 -22 -5 -22 -9z"/>
<path d="M1625 3669 c-4 -6 -4 -13 -1 -16 3 -4 6 -1 6 6 0 7 5 9 12 5 7 -4 8
-3 4 4 -9 15 -13 15 -21 1z"/>
<path d="M1690 3669 c0 -5 5 -7 10 -4 6 3 10 8 10 11 0 2 -4 4 -10 4 -5 0 -10
-5 -10 -11z"/>
<path d="M6673 3665 c0 -8 4 -12 9 -9 5 3 6 10 3 15 -9 13 -12 11 -12 -6z"/>
<path d="M8160 3670 c-13 -9 -13 -10 0 -10 11 0 12 -2 3 -8 -8 -5 -9 -13 -3
-22 8 -13 10 -12 10 3 0 9 0 20 -1 23 0 4 5 11 13 15 7 5 9 9 3 9 -5 0 -17 -5
-25 -10z"/>
<path d="M6713 3657 c0 -8 6 -14 14 -14 9 0 10 4 2 14 -6 7 -12 13 -14 13 -1
0 -2 -6 -2 -13z"/>
<path d="M1590 3651 c0 -6 4 -12 8 -15 5 -3 9 1 9 9 0 8 -4 15 -9 15 -4 0 -8
-4 -8 -9z"/>
<path d="M2930 3650 c0 -5 5 -10 11 -10 5 0 7 5 4 10 -3 6 -8 10 -11 10 -2 0
-4 -4 -4 -10z"/>
<path d="M3040 3650 c-8 -5 -19 -6 -25 -3 -5 3 -2 -2 7 -13 14 -14 21 -15 30
-6 16 16 28 15 28 -4 0 -8 -4 -13 -9 -9 -5 3 -12 2 -15 -3 -2 -4 6 -8 18 -8
17 0 22 4 18 18 -6 24 -34 39 -52 28z m15 -10 c-3 -5 -12 -10 -18 -10 -7 0 -6
4 3 10 19 12 23 12 15 0z"/>
<path d="M4070 3651 c0 -6 4 -13 10 -16 6 -3 7 1 4 9 -7 18 -14 21 -14 7z"/>
<path d="M1426 3643 c-3 -3 -6 -11 -6 -17 0 -6 5 -4 11 4 9 12 10 11 6 -6 -2
-12 1 -21 8 -21 7 0 10 8 7 19 -5 21 -16 30 -26 21z"/>
<path d="M2971 3643 c-1 -17 16 -25 25 -12 4 7 3 9 -4 5 -5 -3 -13 0 -15 6 -4
9 -6 10 -6 1z"/>
<path d="M1460 3632 c0 -5 7 -15 15 -22 8 -7 15 -9 15 -6 0 4 -7 14 -15 22 -8
9 -15 11 -15 6z"/>
<path d="M3785 3630 c-4 -6 -10 -8 -15 -5 -10 6 -25 -14 -16 -22 3 -3 13 0 23
8 15 12 16 12 11 -2 -5 -13 -2 -16 14 -11 18 4 18 6 4 14 -9 5 -14 13 -11 19
4 5 4 9 1 9 -3 0 -8 -5 -11 -10z"/>
<path d="M3930 3630 c0 -5 5 -10 11 -10 5 0 8 -4 5 -8 -3 -5 1 -9 9 -9 21 0
19 10 -5 25 -12 7 -20 8 -20 2z"/>
<path d="M6615 3630 c3 -5 8 -10 11 -10 2 0 4 5 4 10 0 6 -5 10 -11 10 -5 0
-7 -4 -4 -10z"/>
<path d="M622 3615 c15 -16 20 -17 30 -6 11 11 10 13 0 7 -7 -4 -21 -2 -30 5
-15 12 -15 11 0 -6z"/>
<path d="M1266 3617 c3 -8 11 -14 19 -14 20 0 19 4 -5 17 -15 8 -18 8 -14 -3z"/>
<path d="M3190 3617 c0 -10 8 -17 18 -17 9 0 13 4 7 8 -5 4 -13 11 -17 16 -5
5 -8 2 -8 -7z"/>
<path d="M3385 3619 c-4 -6 -12 -8 -19 -6 -7 3 -12 -4 -13 -17 0 -11 1 -15 4
-8 3 6 9 12 14 12 6 0 8 -4 5 -8 -3 -5 1 -9 9 -9 11 0 12 4 4 14 -7 8 -8 13
-1 13 5 0 17 -10 26 -22 15 -22 16 -21 1 10 -17 35 -20 37 -30 21z"/>
<path d="M3466 3616 c3 -9 13 -16 21 -16 8 0 11 -5 7 -12 -4 -7 -3 -8 4 -4 6
4 8 14 5 22 -5 14 -3 14 15 3 11 -7 19 -16 17 -19 -2 -4 2 -7 10 -7 11 0 12 4
4 14 -7 8 -8 13 -1 13 5 0 17 -10 26 -22 l17 -23 -11 23 c-6 12 -9 26 -6 30 2
4 -13 8 -35 9 -21 2 -41 -2 -44 -8 -5 -7 -12 -6 -21 2 -12 10 -13 9 -8 -5z"/>
<path d="M3636 3623 c-11 -11 -6 -23 9 -23 8 0 15 4 15 9 0 13 -16 22 -24 14z"/>
<path d="M3845 3622 c-15 -11 -17 -39 -4 -48 8 -4 9 -3 5 4 -4 6 -2 21 4 32
12 22 11 24 -5 12z"/>
<path d="M5610 3614 c0 -7 -8 -11 -20 -9 -11 2 -22 0 -24 -4 -8 -12 40 -7 56
7 12 9 19 9 34 -3 26 -20 39 -19 18 2 -20 21 -64 25 -64 7z"/>
<path d="M5769 3625 c-1 -5 -1 -13 0 -17 2 -12 -14 -9 -27 4 -9 9 -12 9 -12 0
0 -7 5 -12 11 -12 5 0 7 -5 3 -11 -5 -8 -1 -8 14 0 30 16 36 14 21 -6 -13 -16
-12 -17 3 -5 9 8 21 11 25 9 5 -3 10 4 10 16 2 17 0 19 -7 7 -8 -13 -11 -12
-24 5 -9 11 -16 16 -17 10z"/>
<path d="M5846 3615 c4 -8 1 -15 -5 -15 -6 0 -11 -5 -11 -12 0 -6 8 -3 20 7
19 17 19 35 0 35 -5 0 -7 -7 -4 -15z"/>
<path d="M6301 3611 c-9 -16 -8 -18 9 -14 21 6 26 18 11 28 -6 3 -15 -3 -20
-14z"/>
<path d="M6447 3610 c-19 -22 -22 -35 -7 -25 10 6 34 45 28 45 -2 0 -11 -9
-21 -20z"/>
<path d="M697 3606 c-4 -10 1 -12 14 -9 23 6 24 9 5 16 -8 3 -17 0 -19 -7z"/>
<path d="M3285 3610 c3 -6 1 -10 -4 -10 -6 0 -11 -4 -11 -8 0 -5 7 -9 15 -9 8
0 12 4 9 8 -2 4 1 9 8 11 7 3 5 7 -6 11 -10 4 -15 3 -11 -3z"/>
<path d="M3696 3603 c-4 -9 -4 -18 -1 -21 3 -3 5 0 5 7 0 8 8 11 20 8 25 -6
26 -1 1 12 -15 8 -20 7 -25 -6z"/>
<path d="M5016 3604 c-3 -7 2 -10 15 -7 22 6 26 20 4 20 -8 0 -16 -6 -19 -13z"/>
<path d="M5114 3591 c0 -16 4 -27 9 -24 4 2 5 8 2 13 -3 4 1 11 7 13 10 4 10
6 0 6 -7 1 -10 6 -7 11 3 6 2 10 -3 10 -5 0 -9 -13 -8 -29z"/>
<path d="M5148 3608 c6 -6 8 -16 6 -23 -3 -7 -1 -16 4 -19 5 -3 9 2 8 12 0 9
6 17 14 17 8 0 14 -7 12 -15 -1 -10 2 -9 13 4 8 11 15 25 15 30 0 6 -5 4 -10
-4 -6 -9 -13 -11 -17 -5 -5 6 -18 11 -31 11 -16 1 -20 -2 -14 -8z"/>
<path d="M5337 3606 c-4 -10 1 -12 14 -9 23 6 24 9 5 16 -8 3 -17 0 -19 -7z"/>
<path d="M5379 3598 c-6 -12 -6 -18 1 -18 5 0 10 7 10 16 0 13 3 14 13 5 10
-8 14 -7 14 2 0 20 -27 16 -38 -5z"/>
<path d="M5705 3610 c-3 -5 -1 -10 4 -10 6 0 11 5 11 10 0 6 -2 10 -4 10 -3 0
-8 -4 -11 -10z"/>
<path d="M6176 3603 c-4 -9 -4 -18 -1 -21 3 -3 5 0 5 6 0 6 8 12 18 14 15 3
16 4 0 10 -10 4 -19 1 -22 -9z"/>
<path d="M6405 3610 c-3 -5 -1 -10 4 -10 6 0 11 5 11 10 0 6 -2 10 -4 10 -3 0
-8 -4 -11 -10z"/>
<path d="M3170 3601 c0 -6 4 -13 10 -16 6 -3 7 1 4 9 -7 18 -14 21 -14 7z"/>
<path d="M5990 3601 c0 -6 4 -13 10 -16 6 -3 7 1 4 9 -7 18 -14 21 -14 7z"/>
<path d="M7875 3600 c3 -5 8 -10 11 -10 2 0 4 5 4 10 0 6 -5 10 -11 10 -5 0
-7 -4 -4 -10z"/>
<path d="M7965 3599 c-3 -4 2 -6 10 -5 21 3 28 13 10 13 -9 0 -18 -4 -20 -8z"/>
<path d="M1306 3592 c-3 -5 1 -9 9 -9 8 0 12 4 9 9 -3 4 -7 8 -9 8 -2 0 -6 -4
-9 -8z"/>
<path d="M3233 3585 c0 -8 4 -12 9 -9 5 3 6 10 3 15 -9 13 -12 11 -12 -6z"/>
<path d="M5633 3585 c0 -8 4 -12 9 -9 4 3 8 9 8 15 0 5 -4 9 -8 9 -5 0 -9 -7
-9 -15z"/>
<path d="M5873 3585 c0 -8 4 -12 9 -9 4 3 8 9 8 15 0 5 -4 9 -8 9 -5 0 -9 -7
-9 -15z"/>
<path d="M6508 3593 c7 -3 16 -2 19 1 4 3 -2 6 -13 5 -11 0 -14 -3 -6 -6z"/>
</g>
</svg>
